<svg t="1641978504008" class="icon" viewBox="0 0 1024 1024" version="1.1" xmlns="http://www.w3.org/2000/svg" p-id="5716" width="200" height="200">
	<path d="M654.7 353.1L306.5 792.2l-1.7-1.4L619.7 320z" fill="#FFEB43" p-id="5717">
	</path>
	<path d="M619.7 320L304.8 790.8s-18.5-8.3-26.7 1.9c-8.2 10.2-26.2 35.9-26.2 35.9-2 2.8-3 5.9-3.1 9.1-0.2 5.1 1.9 10.2 6.1 13.6-4.5 1-9.4 0.1-13.4-2.8-4.6-3.4-7-8.8-6.8-14.1 0.1-3.2 1.1-6.3 3.1-9.1l371.9-514.7 10 9.4z" fill="#FFC603" p-id="5718">
	</path>
	<path d="M306.5 792.2l-42 53c-2.5 3.2-5.9 5.2-9.6 6-4.2-3.4-6.3-8.5-6.1-13.6 0.1-3.2 1.1-6.3 3.1-9.1 0 0 18-25.7 26.2-35.9s26.7-1.9 26.7-1.9l1.7 1.5z" fill="#FFEB43" p-id="5719">
	</path>
	<path d="M251.4 857.6c-4.8 0-9.5-1.5-13.4-4.4-6.1-4.5-9.6-11.6-9.3-19.2 0.2-4.4 1.6-8.7 4.2-12.3l375.9-520.3 54 51-3.4 4.3-348.2 439.2-42 53c-3.2 4.1-7.9 7-13 8.1-1.6 0.4-3.2 0.6-4.8 0.6z m359.1-538L242.6 828.7c-1.2 1.7-1.9 3.7-1.9 5.8-0.1 3.6 1.5 7 4.4 9.1 2.5 1.8 5.6 2.5 8.6 1.8 2.5-0.5 4.6-1.9 6.2-3.8l42-53 344.7-434.9-31-29.3-5.1-4.8z" fill="#91000A" p-id="5720">
	</path>
	<path d="M492.4 685.9c-0.1 2.3-0.2 4.5-0.4 6.7-18.7 3.3-48.5 4.3-86.2-8.4-76.1-25.6-98.3-20.8-115.8-4.5-14.8 13.7-7.6 57.9 26.8 82.5 36.3 25.9 78.5 30.2 122.4 16.6l0.3 0.5C420 792 396.6 799 371.6 798c-64.3-2.4-114.5-56.4-112.1-120.7s56.4-114.5 120.7-112.1c64.4 2.4 114.6 56.4 112.2 120.7z" fill="#D8000F" p-id="5721">
	</path>
	<path d="M405.7 684.2c37.7 12.7 67.5 11.7 86.2 8.4-3.4 36.5-23.6 67.9-52.5 86.7l-0.3-0.5c-43.9 13.7-86.1 9.3-122.4-16.6-34.5-24.6-41.6-68.8-26.8-82.5 17.5-16.2 39.7-21.1 115.8 4.5z" fill="#FF2B3F" p-id="5722">
	</path>
	<path d="M376 804.1c-1.5 0-3.1 0-4.6-0.1-67.5-2.5-120.4-59.4-117.9-126.9 1.2-32.7 15.1-63 39.1-85.2 24-22.3 55.2-33.9 87.9-32.7 67.5 2.5 120.4 59.4 117.9 126.9-0.1 2.4-0.2 4.7-0.5 7.1-3.5 37.4-23.6 70.6-55.2 91.1-19.9 13-42.9 19.8-66.7 19.8z m-0.2-233c-28 0-54.5 10.4-75.1 29.5-21.6 20.1-34.1 47.4-35.2 76.9-2.2 60.9 45.5 112.3 106.4 114.5 22.9 0.9 45.1-5.3 64.3-17.7 28.5-18.5 46.6-48.5 49.8-82.2 0.2-2.1 0.3-4.2 0.4-6.4 2.2-60.9-45.5-112.3-106.4-114.5-1.4-0.1-2.8-0.1-4.2-0.1z" fill="#91000A" p-id="5723">
	</path>
	<path d="M618.1 546.6c-0.1 2.8-0.3 5.7-0.6 8.5-19.1 1.8-53.8 1.1-102.8-15.1-93.9-31-113-28.9-134.6-10.7-21.6 18.2-10.5 78.5 30.3 107.6 42.9 30.6 92.8 35.8 144.8 19.6l0.4 0.6c-23 15-50.7 23.2-80.1 22.1-76-2.8-135.4-66.7-132.6-142.8 2.8-76 66.7-135.4 142.8-132.6 75.8 2.9 135.2 66.8 132.4 142.8z" fill="#D8000F" p-id="5724">
	</path>
	<path d="M514.7 539.9c49.1 16.2 83.7 16.9 102.8 15.1-4.2 43-28 79.8-62.1 102l-0.4-0.6c-51.9 16.1-101.8 11-144.8-19.6-40.8-29.1-51.8-89.4-30.3-107.6 21.7-18.2 40.8-20.3 134.8 10.7z" fill="#FF2B3F" p-id="5725">
	</path>
	<path d="M480.5 685.3c-1.8 0-3.6 0-5.4-0.1-79.2-2.9-141.3-69.8-138.4-149 2.9-79.2 69.7-141.3 149-138.4 38.4 1.4 73.9 17.7 100 45.8 26.1 28.1 39.7 64.8 38.3 103.1-0.1 3-0.3 5.9-0.6 8.8-4.3 43.6-27.9 82.4-64.8 106.5-23.3 15.3-50.2 23.3-78.1 23.3z m-0.2-275.5c-70.4 0-129 55.9-131.6 126.9-2.7 72.6 54.2 133.9 126.8 136.6 27.3 1 53.8-6.3 76.7-21.2 33.8-22 55.4-57.6 59.4-97.6 0.3-2.7 0.4-5.4 0.5-8.1 1.3-35.2-11.2-68.7-35.1-94.5-24-25.8-56.5-40.7-91.7-42-1.7-0.1-3.4-0.1-5-0.1z" fill="#91000A" p-id="5726">
	</path>
	<path d="M769.2 352.2c14 87.6-45.3 169.8-132.3 183.7-87.1 13.9-169-45.8-182.9-133.4-14-87.6 45.3-169.8 132.3-183.7 21.2-3.4 42.1-2.4 61.8 2.3-15.4-2.7-31.6-2.9-47.9-0.3-79.7 12.7-134 88-121.2 168.1C491.7 469 566.7 523.7 646.4 511c78.2-12.5 131.8-85 121.9-163.4 0.3 1.5 0.6 3 0.9 4.6z" fill="#D8000F" p-id="5727">
	</path>
	<path d="M768.3 347.6c9.9 78.3-43.7 150.9-121.9 163.4-79.7 12.7-154.7-41.9-167.5-122.1-12.8-80.1 41.5-155.4 121.2-168.1 16.3-2.6 32.5-2.4 47.9 0.3 59.8 14.2 108.3 62.5 120.3 126.5z" fill="#FF2B3F" p-id="5728">
	</path>
	<path d="M611.7 543.9c-80 0-150.7-58.6-163.8-140.5-7-43.9 3.4-87.9 29.3-123.9 25.9-36 64.3-59.7 108-66.6 21.5-3.4 43.1-2.6 64.2 2.4l-2.8 11.7c-19.5-4.7-39.5-5.4-59.5-2.2-40.5 6.5-76.1 28.4-100.1 61.8-24.1 33.4-33.7 74.3-27.2 115 12.1 76 77.7 130.4 151.9 130.4 8 0 16-0.6 24.1-1.9 40.5-6.5 76.1-28.4 100.1-61.8 24.1-33.4 33.7-74.3 27.2-115-0.3-1.6-0.5-3-0.8-4.4C751 289 705.6 241.2 646.5 227.1l2.8-11.7c63.6 15.2 112.6 66.7 124.8 131.2 0.3 1.5 0.6 3 0.8 4.8 7 43.9-3.4 88-29.3 124-25.9 36-64.3 59.7-108 66.6-8.6 1.2-17.3 1.9-25.9 1.9z" fill="#91000A" p-id="5729">
	</path>
	<path d="M699.4 215c13.8-23.5 71.2 13.5 57.8 36.5l-0.2-0.1-57.6-36.4z" fill="#FFEB43" p-id="5730">
	</path>
	<path d="M757 251.3l0.2 0.1c-0.4 0.6-0.8 1.3-1.3 1.9-2.8 3.5-5.2 6.5-7.4 9.2-8.3 2.3-25.3 5.1-41.3-4.4-4.8-2.8-9.5-1.8-13.4 3.3-4.9 6.4-8.4 11.1-10.8 14.5-5.9-8.7-7.6-19.8-0.9-30.3 0 0 6.6-12.4 17.4-30.7-0.2 0.5-4.9 15.3 16.9 31 22.1 16.2 33.8 9 40.6 5.4z" fill="#FFC603" p-id="5731">
	</path>
	<path d="M699.4 215l57.6 36.4c-6.8 3.6-18.5 10.7-40.7-5.3-21.8-15.8-17.1-30.6-16.9-31.1zM748.5 262.6c-6.4 7.9-11 13-18.5 21.2-13.9 15.2-36.8 7.3-47.1-7.8 2.4-3.5 5.9-8.1 10.8-14.5 4-5.1 8.6-6.1 13.4-3.3 16.1 9.4 33.1 6.7 41.4 4.4z" fill="#FFEB43" p-id="5732">
	</path>
	<path d="M711.5 298c-0.8 0-1.6 0-2.4-0.1-12-0.9-24-8-31.1-18.5-7.9-11.7-8.4-25.1-1.2-36.6 0.9-1.7 7.4-13.8 17.3-30.7 0 0 0-0.1 0.1-0.1 7.6-13 25.8-14 45.2-2.6 18.3 10.7 32 29.6 22.9 45.2-0.5 0.8-1.1 1.7-1.8 2.6-2.8 3.6-5.2 6.6-7.4 9.3-6.4 7.8-10.9 12.9-18.7 21.5-6 6.4-14 10-22.9 10z m-6.9-80s-0.1 0 0 0c-10.6 18-17.2 30.5-17.3 30.6l-0.2 0.4c-6.4 10.1-2.2 19.2 0.8 23.7 5.1 7.5 13.7 12.7 22.1 13.3 4.3 0.3 10.5-0.5 15.6-6.2 7.6-8.4 12.1-13.4 18.2-21 2.2-2.6 4.5-5.6 7.3-9.1 0.3-0.4 0.6-0.8 0.8-1.1 4.8-8.3-5.9-21.4-18.6-28.8-10.6-6.4-24.1-9.5-28.7-1.8z" fill="#91000A" p-id="5733">
	</path>
	<path d="M741.5 262.1c-7.5 0-16.9-2.6-28.8-11.2-24.7-17.8-19.8-35.7-19.1-37.7l0.5-1.5 1-0.9c1.1-1.1 2.6-1.7 4.2-1.7 3.3 0 6 2.7 6 6 0 0.7-0.1 1.3-0.3 1.9-0.3 1-2.7 11.7 14.7 24.3 18.4 13.3 27.2 8.6 33.6 5.3l0.7-0.4c2.9-1.5 6.6-0.4 8.1 2.5s0.4 6.6-2.5 8.1l-0.6 0.2c-3.9 2.1-9.6 5.1-17.5 5.1z" fill="#91000A" p-id="5734">
	</path>
	<path d="M628 488.4h-0.6c-17.1-1.6-33.7-6-49.5-12.9-3.1-1.4-6.2-2.9-9.2-4.4-2.9-1.5-4.1-5.2-2.6-8.1 1.5-2.9 5.2-4.1 8.1-2.6 2.8 1.5 5.7 2.8 8.5 4.1 14.6 6.5 30 10.5 45.8 12 3.3 0.3 5.7 3.2 5.4 6.5-0.2 3-2.8 5.4-5.9 5.4zM551.7 459.3c-1.2 0-2.5-0.4-3.5-1.2-1.2-0.8-2.3-1.7-3.4-2.6-2.6-2-3.1-5.8-1.1-8.4 2-2.6 5.8-3.1 8.4-1.1 1 0.8 2.1 1.6 3.2 2.4 2.7 2 3.3 5.7 1.3 8.4-1.3 1.7-3.1 2.5-4.9 2.5z" fill="#FFFFFF" p-id="5735">
	</path>
	<path d="M498.6 651.1h-0.6c-11.7-1.1-23.1-4.1-33.9-8.9-2.1-0.9-4.2-2-6.3-3-2.9-1.5-4.1-5.2-2.5-8.1 1.5-2.9 5.2-4.1 8.1-2.6 1.8 1 3.7 1.9 5.6 2.7 9.6 4.3 19.8 6.9 30.2 7.9 3.3 0.3 5.7 3.2 5.4 6.5-0.3 3.1-2.9 5.5-6 5.5zM447.2 631.5c-1.2 0-2.5-0.4-3.5-1.2-0.8-0.6-1.6-1.2-2.3-1.8-2.6-2-3.1-5.8-1.1-8.4 2-2.6 5.8-3.1 8.4-1.1 0.7 0.5 1.4 1.1 2.1 1.6 2.7 2 3.3 5.7 1.3 8.4-1.2 1.7-3 2.5-4.9 2.5z" fill="#FFFFFF" p-id="5736">
	</path>
	<path d="M391 771c-7.1 0-14.2-0.9-21.2-2.6-1.8-0.5-3.7-1-5.5-1.5-3.2-1-4.9-4.4-3.9-7.5 1-3.2 4.4-4.9 7.5-3.9 1.6 0.5 3.1 0.9 4.7 1.3 8.1 2 16.3 2.6 24.5 2 3.3-0.3 6.2 2.2 6.5 5.5 0.3 3.3-2.2 6.2-5.5 6.5-2.4 0.1-4.8 0.2-7.1 0.2zM354.4 762.5c-0.9 0-1.8-0.2-2.6-0.6-0.7-0.3-1.4-0.7-2.1-1.1-2.9-1.5-4.1-5.2-2.5-8.1 1.5-2.9 5.2-4.1 8.1-2.5l1.8 0.9c3 1.5 4.2 5 2.8 8-1.1 2.2-3.3 3.4-5.5 3.4z" fill="#FFFFFF" p-id="5737">
	</path>
</svg>
