<svg t="1641978603117" class="icon" viewBox="0 0 1024 1024" version="1.1" xmlns="http://www.w3.org/2000/svg" p-id="9406" width="200" height="200">
	<path d="M520.046 980.114c60.189 0 108.983-24.944 108.983-55.714V789.943H410.33c0.488 81.481 0.732 126.301 0.732 134.457 0 30.77 48.793 55.714 108.983 55.714z" fill="#FFC600" p-id="9407">
	</path>
	<path d="M515.657 0C541.915 0 563.2 21.285 563.2 47.543v60.708h-95.086V47.543C468.114 21.285 489.4 0 515.657 0z m29.989 90.697V47.543c0-16.563-13.426-29.989-29.989-29.989S485.67 30.98 485.67 47.543v43.154h59.977z m-30.72 751.909v175.543a4.389 4.389 0 0 0 8.777 0V842.606a4.389 4.389 0 0 0-8.777 0z m-21.797-1.463v175.543a4.389 4.389 0 0 0 8.777 0V841.143a4.389 4.389 0 0 0-8.777 0z m43.593 0v175.543a4.389 4.389 0 0 0 8.777 0V841.143a4.389 4.389 0 0 0-8.777 0z m-130.78-36.572v175.543a4.389 4.389 0 0 0 8.778 0V804.571a4.389 4.389 0 0 0-8.777 0z m217.967 0v175.543a4.389 4.389 0 0 0 8.777 0V804.571a4.389 4.389 0 0 0-8.777 0z m-152.576 33.646v175.543a4.389 4.389 0 0 0 8.777 0V838.217a4.389 4.389 0 0 0-8.777 0z m-21.797-8.777v175.543a4.389 4.389 0 0 0 8.777 0V829.44a4.389 4.389 0 0 0-8.777 0z m108.983 8.777v175.543a4.389 4.389 0 0 0 8.777 0V838.217a4.389 4.389 0 0 0-8.777 0z m21.796-8.777v175.543a4.389 4.389 0 0 0 8.778 0V829.44a4.389 4.389 0 0 0-8.778 0z m21.797-10.24v175.543a4.389 4.389 0 0 0 8.777 0V819.2a4.389 4.389 0 0 0-8.777 0z m-174.373 0v175.543a4.389 4.389 0 0 0 8.778 0V819.2a4.389 4.389 0 0 0-8.778 0z" fill="#91000A" p-id="9408">
	</path>
	<path d="M595.383 90.697c42.342 0 76.835 33.97 77.523 76.323l0.08 9.986H356.937v-8.777c0-42.82 34.712-77.532 77.532-77.532h160.914z m59.206 67.887c-4.612-28.565-29.396-50.333-59.206-50.333H434.469c-30.144 0-55.092 22.236-59.34 51.2h279.595l-0.135-0.867z m-59.206 698.65c42.342 0 76.835-33.97 77.523-76.323l0.08-9.985H356.937v8.777c0 42.82 34.712 77.531 77.532 77.531h160.914z m59.206-67.887c-4.612 28.566-29.396 50.333-59.206 50.333H434.469c-30.144 0-55.092-22.235-59.34-51.2h279.595l-0.135 0.867z" fill="#91000A" p-id="9409">
	</path>
	<path d="M434.469 848.457h160.914c37.971 0 68.754-30.783 68.754-68.754H365.714c0 37.971 30.783 68.754 68.755 68.754z" fill="#FFE400" p-id="9410">
	</path>
	<path d="M416.914 779.703c0 37.971 30.783 68.754 68.755 68.754h-51.2c-37.972 0-68.755-30.783-68.755-68.754h51.2z" fill="#FFA700" p-id="9411">
	</path>
	<path d="M434.469 99.474h160.914c37.971 0 68.754 30.783 68.754 68.755H365.714c0-37.972 30.783-68.755 68.755-68.755z" fill="#FFE400" p-id="9412">
	</path>
	<path d="M481.28 99.474c-37.971 0-68.754 30.783-68.754 68.755h-46.812c0-37.972 30.783-68.755 68.755-68.755z" fill="#FFA700" p-id="9413">
	</path>
	<path d="M77.531 471.771a434.469 332.8 0 1 0 868.938 0 434.469 332.8 0 1 0-868.938 0z" fill="#D8000F" p-id="9414">
	</path>
	<path d="M512 138.971c7.358 0 14.675 0.14 21.946 0.417-229.76 8.756-412.529 154.22-412.529 332.383S304.187 795.4 533.943 804.155c-7.268 0.277-14.585 0.416-21.943 0.416-239.951 0-434.469-148.999-434.469-332.8S272.05 138.971 512 138.971z" fill="#C40714" p-id="9415">
	</path>
	<path d="M512.003 138.971c-7.36 0-14.677 0.14-21.946 0.417 229.758 8.756 412.529 154.22 412.529 332.383S719.815 795.4 490.06 804.155c7.266 0.277 14.583 0.416 21.943 0.416 239.95 0 434.468-148.999 434.468-332.8s-194.519-332.8-434.468-332.8z" fill="#C40714" p-id="9416">
	</path>
	<path d="M512 134.583c242.157 0 438.857 150.671 438.857 337.188S754.157 808.96 512 808.96 73.143 658.289 73.143 471.771 269.843 134.583 512 134.583z m0 8.777c-237.744 0-430.08 147.329-430.08 328.411S274.256 800.183 512 800.183 942.08 652.854 942.08 471.77 749.744 143.36 512 143.36z" fill="#91000A" p-id="9417">
	</path>
	<path d="M197.486 471.771a332.8 314.514 90 1 0 629.028 0 332.8 314.514 90 1 0-629.028 0z" fill="#D8000F" p-id="9418">
	</path>
	<path d="M512 134.583c176.182 0 318.903 151.018 318.903 337.188S688.183 808.96 512 808.96 193.097 657.942 193.097 471.771 335.817 134.583 512 134.583z m0 8.777c-171.22 0-310.126 146.98-310.126 328.411S340.78 800.183 512 800.183s310.126-146.98 310.126-328.412S683.22 143.36 512 143.36z" fill="#91000A" p-id="9419">
	</path>
	<path d="M197.486 473.234a334.263 314.514 90 1 0 629.028 0 334.263 314.514 90 1 0-629.028 0z" fill="#D8000F" p-id="9420">
	</path>
	<path d="M512 138.971c7.377 0 14.694 0.27 21.946 0.798C370.479 151.689 241.37 295.777 241.37 471.77c0 175.995 129.108 320.082 292.572 332.003-7.249 0.528-14.566 0.797-21.943 0.797-173.701 0-314.514-148.999-314.514-332.8s140.813-332.8 314.514-332.8z" fill="#C40714" p-id="9421">
	</path>
	<path d="M512.003 138.971c-7.377 0-14.696 0.27-21.946 0.798 163.467 11.92 292.574 156.008 292.574 332.002 0 175.995-129.107 320.082-292.57 332.003 7.246 0.528 14.565 0.797 21.942 0.797 173.701 0 314.514-148.999 314.514-332.8s-140.813-332.8-314.514-332.8z" fill="#C40714" p-id="9422">
	</path>
	<path d="M512 133.12c176.187 0 318.903 151.678 318.903 338.651S688.187 810.423 512 810.423 193.097 658.745 193.097 471.77 335.813 133.12 512 133.12z m0 8.777c-171.216 0-310.126 147.632-310.126 329.874S340.784 801.646 512 801.646 822.126 654.014 822.126 471.77 683.216 141.897 512 141.897z" fill="#FFE400" p-id="9423">
	</path>
	<path d="M390.583 471.771a332.8 121.417 90 1 0 242.834 0 332.8 121.417 90 1 0-242.834 0z" fill="#D8000F" p-id="9424">
	</path>
	<path d="M415.451 449.097c0 180.166 54.36 326.217 121.418 326.217 12.071 0 23.73-4.732 34.735-13.544C554 789.023 533.662 804.57 512 804.57c-67.057 0-121.417-148.999-121.417-332.8 0-168.92 45.915-308.446 105.402-329.93-46.943 45.09-80.534 165.634-80.534 307.256z" fill="#C40714" p-id="9425">
	</path>
	<path d="M512 134.583c70.685 0 125.806 151.08 125.806 337.188S582.686 808.96 512 808.96 386.194 657.879 386.194 471.771 441.314 134.583 512 134.583z m0 8.777c-63.428 0-117.029 146.92-117.029 328.411S448.572 800.183 512 800.183s117.029-146.92 117.029-328.412S575.428 143.36 512 143.36z" fill="#FFE400" p-id="9426">
	</path>
</svg>
