<svg t="1641976216467" class="icon" viewBox="0 0 1024 1024" version="1.1" xmlns="http://www.w3.org/2000/svg" p-id="13684" width="200" height="200">
	<path d="M463.2 678.4l66.4 87.2 66.4-22.4-32.8 89.6 67.2 60.8-120.8-8.8-77.6 93.6 11.2-128-79.2-45.6L456 776.8z" fill="#F4D31F" p-id="13685">
	</path>
	<path d="M416 988.8l12-138.4-85.6-49.6L440 771.2l8-106.4 72 93.6 72-24.8-35.2 95.2 74.4 66.4-130.4-8.8L416 988.8z m-52.8-185.6l73.6 42.4-10.4 118.4 70.4-85.6 111.2 8-60.8-55.2 31.2-84-61.6 20.8-61.6-81.6-6.4 90.4-85.6 26.4z" fill="#BA2B21" p-id="13686">
	</path>
	<path d="M463.2 687.2L427.2 632c-34.4-52.8-332-520.8-301.6-597.6 2.4-7.2 8-12 15.2-13.6 24-6.4 70.4 18.4 185.6 296.8 62.4 150.4 115.2 305.6 116 307.2l20.8 62.4zM146.4 36.8H144c-1.6 0-3.2 0.8-4 4-6.4 16 3.2 78.4 139.2 316 44.8 79.2 92 155.2 123.2 205.6-21.6-59.2-55.2-149.6-92-238.4C202.4 63.2 159.2 36.8 146.4 36.8z" fill="#BA2B21" p-id="13687">
	</path>
	<path d="M278.4 246.4c8-22.4-19.2-52.8-60.8-68C176 163.2 136 169.6 128 192c0 0.8 0 1.6-0.8 1.6 0 0.8-0.8 0.8-0.8 1.6L28.8 466.4c-3.2 8 1.6 17.6 9.6 20.8l120.8 43.2c8 3.2 17.6-1.6 20.8-9.6l97.6-271.2c0-0.8 0-1.6 0.8-1.6-0.8-0.8 0-0.8 0-1.6z" fill="#DD4F4A" p-id="13688">
	</path>
	<path d="M164 535.2c-2.4 0-4.8 0-6.4-0.8L36.8 491.2c-4.8-1.6-8.8-5.6-11.2-10.4s-2.4-10.4-0.8-15.2l97.6-271.2c0-0.8 0.8-0.8 0.8-1.6s0-1.6 0.8-1.6c4.8-12 16.8-20.8 35.2-23.2 17.6-2.4 38.4 0 59.2 7.2 44 16 72 48 63.2 72.8 0 0.8-0.8 0.8-0.8 1.6s0 1.6-0.8 2.4L183.2 522.4c-1.6 4.8-5.6 8.8-10.4 11.2-2.4 1.6-5.6 1.6-8.8 1.6z m9.6-360.8c-4.8 0-8.8 0-12.8 0.8-15.2 2.4-25.6 8.8-29.6 18.4l-0.8 2.4c0 0.8-0.8 0.8-0.8 1.6L32.8 468c-0.8 3.2-0.8 6.4 0.8 8.8 0.8 3.2 3.2 5.6 6.4 6.4l120 43.2c3.2 0.8 6.4 0.8 8.8-0.8 3.2-1.6 4.8-4 6.4-6.4L272.8 248v-0.8l0.8-3.2c7.2-20-19.2-48.8-58.4-62.4-13.6-4.8-28-7.2-41.6-7.2z" fill="#BA2B21" p-id="13689">
	</path>
	<path d="M85.995066 543.801588a80 43.2 19.81 1 0 29.281144-81.286989 80 43.2 19.81 1 0-29.281144 81.286989Z" fill="#BA2B21" p-id="13690">
	</path>
	<path d="M130.4 556c-14.4 0-29.6-3.2-45.6-8.8-44-16-72-48-63.2-72.8 8.8-24.8 50.4-32 95.2-16 44 16 72 48 63.2 72.8-4.8 12.8-17.6 20.8-36 24-4 0.8-8.8 0.8-13.6 0.8zM71.2 458.4c-20.8 0-37.6 6.4-42.4 19.2-7.2 20 19.2 48.8 58.4 62.4 19.2 7.2 39.2 9.6 55.2 7.2 15.2-2.4 25.6-8.8 29.6-18.4 7.2-20-19.2-48.8-58.4-62.4-14.4-5.6-28.8-8-42.4-8z" fill="#BA2B21" p-id="13691">
	</path>
	<path d="M264.8 284c-13.6-20.8-38.4-40-69.6-52.8-28.8-11.2-56-15.2-77.6-10.4l-8 23.2c16-8 46.4-8 80 5.6 37.6 15.2 61.6 40 67.2 59.2l8-24.8zM200 464l8.8-24c-13.6-18.4-37.6-35.2-67.2-45.6-25.6-8.8-52-12-73.6-8.8-3.2 0.8-7.2 1.6-10.4 2.4l-8.8 24c5.6-3.2 12.8-6.4 21.6-7.2 19.2-3.2 41.6 0 64.8 8 34.4 12.8 57.6 33.6 64.8 51.2z" fill="#F4D31F" p-id="13692">
	</path>
	<path d="M164 535.2c-2.4 0-4.8 0-6.4-0.8L36.8 491.2c-4.8-1.6-8.8-5.6-11.2-10.4s-2.4-10.4-0.8-15.2l97.6-271.2c0-0.8 0.8-0.8 0.8-1.6s0-1.6 0.8-1.6c4.8-12 16.8-20.8 35.2-23.2 17.6-2.4 38.4 0 59.2 7.2 44 16 72 48 63.2 72.8 0 0.8-0.8 0.8-0.8 1.6s0 1.6-0.8 2.4L183.2 522.4c-1.6 4.8-5.6 8.8-10.4 11.2-2.4 1.6-5.6 1.6-8.8 1.6z m9.6-360.8c-4.8 0-8.8 0-12.8 0.8-15.2 2.4-25.6 8.8-29.6 18.4l-0.8 2.4c0 0.8-0.8 0.8-0.8 1.6L32.8 468c-0.8 3.2-0.8 6.4 0.8 8.8 0.8 3.2 3.2 5.6 6.4 6.4l120 43.2c3.2 0.8 6.4 0.8 8.8-0.8 3.2-1.6 4.8-4 6.4-6.4L272.8 248v-0.8l0.8-3.2c7.2-20-19.2-48.8-58.4-62.4-13.6-4.8-28-7.2-41.6-7.2z" fill="#BA2B21" p-id="13693">
	</path>
	<path d="M309.6 164.8c-22.4-7.2-52 20.8-66.4 62.4-13.6 41.6-6.4 82.4 16 89.6 0.8 0 1.6 0 1.6 0.8 0.8 0 0.8 0.8 1.6 0.8L536.8 408c8 2.4 17.6-1.6 20-10.4l40-121.6c2.4-8-1.6-17.6-10.4-20L313.6 166.4c-0.8 0-1.6 0-1.6-0.8-0.8 0-1.6-0.8-2.4-0.8z" fill="#DD4F4A" p-id="13694">
	</path>
	<path d="M541.6 412.8c-2.4 0-4 0-6.4-0.8L262.4 321.6c-0.8 0-0.8-0.8-1.6-0.8s-1.6 0-1.6-0.8c-12.8-4-20.8-16.8-24.8-35.2-3.2-17.6-0.8-38.4 5.6-60 14.4-44.8 45.6-73.6 71.2-64.8 0.8 0 0.8 0.8 1.6 0.8s1.6 0 2.4 0.8l273.6 90.4c4.8 1.6 8.8 5.6 12 9.6s3.2 10.4 0.8 15.2l-40 121.6c-1.6 4.8-5.6 8.8-9.6 12-4 1.6-7.2 2.4-10.4 2.4zM302.4 168c-19.2 0-43.2 25.6-54.4 60.8-6.4 20-8.8 39.2-5.6 56 2.4 15.2 9.6 25.6 19.2 28.8l3.2 0.8h0.8l273.6 90.4c3.2 0.8 6.4 0.8 8.8-0.8 3.2-1.6 4.8-4 5.6-7.2l40-121.6c0.8-3.2 0.8-6.4-0.8-8.8-1.6-3.2-4-4.8-7.2-5.6L312 169.6h-0.8l-2.4-0.8h-0.8c-1.6-0.8-4-0.8-5.6-0.8z" fill="#BA2B21" p-id="13695">
	</path>
	<path d="M546.228316 411.529756a43.2 80 18.228 1 0 50.04786-151.971089 43.2 80 18.228 1 0-50.04786 151.971089Z" fill="#BA2B21" p-id="13696">
	</path>
	<path d="M554.4 416.8c-3.2 0-6.4-0.8-8.8-1.6-24.8-8-33.6-49.6-18.4-94.4 14.4-44.8 46.4-73.6 71.2-64.8 12.8 4 20.8 16.8 24.8 35.2 3.2 17.6 0.8 38.4-5.6 60-14.4 38.4-40 65.6-63.2 65.6z m34.4-154.4c-19.2 0-43.2 25.6-54.4 60.8-12.8 39.2-6.4 77.6 13.6 84.8 20 6.4 48-20.8 60.8-60 6.4-20 8.8-39.2 5.6-56-2.4-15.2-9.6-25.6-19.2-28.8-2.4-0.8-4-0.8-6.4-0.8z" fill="#BA2B21" p-id="13697">
	</path>
	<path d="M348 177.6c-20 14.4-39.2 39.2-51.2 71.2-10.4 28.8-13.6 56.8-8.8 77.6l23.2 8c-8.8-16-9.6-45.6 3.2-80 14.4-38.4 38.4-63.2 56.8-68.8l-23.2-8zM529.6 237.6l-24-8c-17.6 14.4-33.6 38.4-43.2 68.8-8 25.6-10.4 52-6.4 74.4 0.8 3.2 1.6 7.2 2.4 10.4l24.8 8c-4-5.6-6.4-12.8-8-21.6-3.2-19.2-1.6-41.6 5.6-64.8 11.2-36 31.2-60 48.8-67.2z" fill="#F4D31F" p-id="13698">
	</path>
	<path d="M541.6 412.8c-2.4 0-4 0-6.4-0.8L262.4 321.6c-0.8 0-0.8-0.8-1.6-0.8s-1.6 0-1.6-0.8c-12.8-4-20.8-16.8-24.8-35.2-3.2-17.6-0.8-38.4 5.6-60 14.4-44.8 45.6-73.6 71.2-64.8 0.8 0 0.8 0.8 1.6 0.8s1.6 0 2.4 0.8l273.6 90.4c4.8 1.6 8.8 5.6 12 9.6s3.2 10.4 0.8 15.2l-40 121.6c-1.6 4.8-5.6 8.8-9.6 12-4 1.6-7.2 2.4-10.4 2.4zM302.4 168c-19.2 0-43.2 25.6-54.4 60.8-6.4 20-8.8 39.2-5.6 56 2.4 15.2 9.6 25.6 19.2 28.8l3.2 0.8h0.8l273.6 90.4c3.2 0.8 6.4 0.8 8.8-0.8 3.2-1.6 4.8-4 5.6-7.2l40-121.6c0.8-3.2 0.8-6.4-0.8-8.8-1.6-3.2-4-4.8-7.2-5.6L312 169.6h-0.8l-2.4-0.8h-0.8c-1.6-0.8-4-0.8-5.6-0.8z" fill="#BA2B21" p-id="13699">
	</path>
	<path d="M376 373.6c8-22.4-19.2-52.8-60.8-68-41.6-15.2-81.6-8.8-89.6 13.6 0 0.8 0 1.6-0.8 1.6 0 0.8-0.8 0.8-0.8 1.6l-97.6 272c-3.2 8 1.6 17.6 9.6 20.8l120 42.4c8 3.2 17.6-1.6 20.8-9.6l97.6-271.2c0-0.8 0-1.6 0.8-1.6 0 0 0-0.8 0.8-1.6z" fill="#DD4F4A" p-id="13700">
	</path>
	<path d="M261.6 663.2c-2.4 0-4.8 0-6.4-0.8l-120.8-43.2c-10.4-4-16-15.2-12-25.6l97.6-271.2c0-0.8 0.8-0.8 0.8-1.6s0-1.6 0.8-1.6c8.8-24.8 50.4-32 95.2-16 44 16 72 48 63.2 72.8 0 0.8-0.8 0.8-0.8 1.6s0 1.6-0.8 2.4L280.8 649.6c-3.2 8-11.2 13.6-19.2 13.6z m9.6-361.6c-20.8 0-37.6 6.4-42.4 19.2l-0.8 3.2v0.8L130.4 595.2c-2.4 6.4 0.8 12.8 7.2 15.2l120.8 43.2c6.4 2.4 12.8-0.8 15.2-7.2L370.4 376v-0.8l0.8-3.2c7.2-20-19.2-48.8-58.4-62.4-13.6-5.6-28.8-8-41.6-8z" fill="#BA2B21" p-id="13701">
	</path>
	<path d="M183.299702 671.029249a80 43.2 19.81 1 0 29.281144-81.286989 80 43.2 19.81 1 0-29.281144 81.286989Z" fill="#BA2B21" p-id="13702">
	</path>
	<path d="M227.2 684c-14.4 0-29.6-3.2-45.6-8.8-20.8-7.2-38.4-19.2-50.4-32-12.8-13.6-16.8-28.8-12.8-40.8 4.8-12 16.8-20.8 35.2-23.2 17.6-2.4 38.4 0 59.2 7.2 20.8 7.2 38.4 19.2 50.4 32 12.8 13.6 16.8 28.8 12.8 40.8-4.8 12-16.8 20.8-35.2 23.2-4 0.8-8 1.6-13.6 1.6z m-58.4-98.4c-4.8 0-8.8 0-12.8 0.8-15.2 2.4-25.6 8.8-29.6 18.4-3.2 9.6 0.8 20.8 11.2 32.8 11.2 12 28 23.2 47.2 29.6 19.2 7.2 39.2 9.6 55.2 7.2 15.2-2.4 25.6-8.8 29.6-18.4 3.2-9.6-0.8-20.8-11.2-32.8-11.2-12-28-23.2-47.2-29.6-14.4-4.8-28.8-8-42.4-8z" fill="#BA2B21" p-id="13703">
	</path>
	<path d="M362.4 411.2c-13.6-20.8-38.4-40-69.6-52.8-28.8-11.2-56-15.2-77.6-10.4l-8 23.2c16-8 46.4-8 80 5.6 37.6 15.2 61.6 40 67.2 59.2l8-24.8zM297.6 592l8.8-24c-13.6-18.4-37.6-35.2-67.2-45.6-25.6-8.8-52-12-73.6-8.8-3.2 0.8-7.2 1.6-10.4 2.4l-8.8 24c5.6-3.2 12.8-6.4 21.6-7.2 19.2-3.2 41.6 0 64.8 8 34.4 12 57.6 32.8 64.8 51.2z" fill="#F4D31F" p-id="13704">
	</path>
	<path d="M261.6 663.2c-2.4 0-4.8 0-6.4-0.8l-120.8-43.2c-10.4-4-16-15.2-12-25.6l97.6-271.2c0-0.8 0.8-0.8 0.8-1.6s0-1.6 0.8-1.6c8.8-24.8 50.4-32 95.2-16 44 16 72 48 63.2 72.8 0 0.8-0.8 0.8-0.8 1.6s0 1.6-0.8 2.4L280.8 649.6c-3.2 8-11.2 13.6-19.2 13.6z m9.6-361.6c-20.8 0-37.6 6.4-42.4 19.2l-0.8 3.2v0.8L130.4 595.2c-2.4 6.4 0.8 12.8 7.2 15.2l120.8 43.2c6.4 2.4 12.8-0.8 15.2-7.2L370.4 376v-0.8l0.8-3.2c7.2-20-19.2-48.8-58.4-62.4-13.6-5.6-28.8-8-41.6-8z" fill="#BA2B21" p-id="13705">
	</path>
	<path d="M373.6 312c-22.4-7.2-52 20.8-66.4 62.4-13.6 41.6-6.4 82.4 16 89.6 0.8 0 1.6 0 1.6 0.8 0.8 0 0.8 0.8 1.6 0.8L600 556c8 2.4 17.6-1.6 20-10.4l40-121.6c2.4-8-1.6-17.6-10.4-20L376.8 313.6c-0.8 0-1.6 0-1.6-0.8-0.8 0-1.6-0.8-1.6-0.8z" fill="#DD4F4A" p-id="13706">
	</path>
	<path d="M605.6 560c-2.4 0-4 0-6.4-0.8L325.6 468.8c-0.8 0-1.6-0.8-1.6-0.8-0.8 0-1.6 0-1.6-0.8-12.8-4-20.8-16.8-24.8-35.2-3.2-17.6-0.8-38.4 5.6-60 7.2-20.8 17.6-39.2 30.4-51.2 13.6-12.8 28-17.6 40-13.6 0.8 0 0.8 0.8 1.6 0.8s1.6 0 2.4 0.8l273.6 90.4c10.4 3.2 16 14.4 12.8 25.6l-40 121.6c-2.4 8.8-10.4 13.6-18.4 13.6z m-240-244.8c-8 0-16.8 4-25.6 12.8-12 11.2-22.4 28.8-28.8 48-6.4 20-8.8 39.2-5.6 56 2.4 15.2 9.6 25.6 19.2 28.8l2.4 0.8c0.8 0 0.8 0.8 1.6 0.8l273.6 90.4c6.4 2.4 12.8-1.6 15.2-8l40-121.6c2.4-6.4-1.6-12.8-8-15.2L376 316.8h-0.8l-3.2-0.8c-2.4-0.8-4-0.8-6.4-0.8z" fill="#BA2B21" p-id="13707">
	</path>
	<path d="M610.01601 558.420316a43.2 80 18.228 1 0 50.04786-151.971088 43.2 80 18.228 1 0-50.04786 151.971088Z" fill="#BA2B21" p-id="13708">
	</path>
	<path d="M617.6 564c-3.2 0-6.4-0.8-8.8-1.6-12.8-4-20.8-16.8-24.8-35.2-3.2-17.6-0.8-38.4 5.6-60 14.4-44.8 46.4-73.6 71.2-64.8 12.8 4 20.8 16.8 24.8 35.2 3.2 17.6 0.8 38.4-5.6 60-7.2 20.8-17.6 39.2-30.4 51.2-11.2 9.6-21.6 15.2-32 15.2z m35.2-154.4c-19.2 0-43.2 25.6-54.4 60.8-6.4 20-8.8 39.2-5.6 56 2.4 15.2 9.6 25.6 19.2 28.8s20.8-0.8 32.8-12c12-11.2 22.4-28.8 28.8-48s8.8-39.2 5.6-56c-2.4-15.2-9.6-25.6-19.2-28.8-3.2-0.8-5.6-0.8-7.2-0.8z" fill="#BA2B21" p-id="13709">
	</path>
	<path d="M411.2 324.8c-20 14.4-39.2 39.2-51.2 71.2-10.4 28.8-13.6 56.8-8.8 77.6l23.2 8c-8.8-16-9.6-45.6 3.2-80 14.4-38.4 38.4-63.2 56.8-68.8l-23.2-8zM593.6 384.8l-24-8c-17.6 14.4-33.6 38.4-43.2 68.8-8 25.6-10.4 52-6.4 74.4 0.8 3.2 1.6 7.2 2.4 10.4l24.8 8c-4-5.6-6.4-12.8-8-21.6-3.2-19.2-1.6-41.6 5.6-64.8 10.4-36 31.2-60 48.8-67.2z" fill="#F4D31F" p-id="13710">
	</path>
	<path d="M605.6 560c-2.4 0-4 0-6.4-0.8L325.6 468.8c-0.8 0-1.6-0.8-1.6-0.8-0.8 0-1.6 0-1.6-0.8-12.8-4-20.8-16.8-24.8-35.2-3.2-17.6-0.8-38.4 5.6-60 7.2-20.8 17.6-39.2 30.4-51.2 13.6-12.8 28-17.6 40-13.6 0.8 0 0.8 0.8 1.6 0.8s1.6 0 2.4 0.8l273.6 90.4c10.4 3.2 16 14.4 12.8 25.6l-40 121.6c-2.4 8.8-10.4 13.6-18.4 13.6z m-240-244.8c-8 0-16.8 4-25.6 12.8-12 11.2-22.4 28.8-28.8 48-6.4 20-8.8 39.2-5.6 56 2.4 15.2 9.6 25.6 19.2 28.8l2.4 0.8c0.8 0 0.8 0.8 1.6 0.8l273.6 90.4c6.4 2.4 12.8-1.6 15.2-8l40-121.6c2.4-6.4-1.6-12.8-8-15.2L376 316.8h-0.8l-3.2-0.8c-2.4-0.8-4-0.8-6.4-0.8z" fill="#BA2B21" p-id="13711">
	</path>
	<path d="M455.2 516c8-22.4-19.2-52.8-60.8-68-41.6-15.2-81.6-8.8-89.6 13.6 0 0.8 0 1.6-0.8 1.6 0 0.8-0.8 0.8-0.8 1.6L205.6 736c-3.2 8 1.6 17.6 9.6 20.8L336 800c8 3.2 17.6-1.6 20.8-9.6l97.6-271.2c0-0.8 0-1.6 0.8-1.6-0.8-0.8 0-1.6 0-1.6z" fill="#DD4F4A" p-id="13712">
	</path>
	<path d="M341.6 804.8c-2.4 0-4.8 0-6.4-0.8L214.4 760c-4.8-1.6-8.8-5.6-11.2-10.4s-2.4-10.4-0.8-15.2L300 464c0-0.8 0.8-0.8 0.8-1.6s0-1.6 0.8-1.6c4.8-12 16.8-20.8 35.2-23.2 17.6-2.4 38.4 0 59.2 7.2 44 16 72 48 63.2 72.8 0 0.8-0.8 0.8-0.8 1.6s0 1.6-0.8 2.4L360 792c-1.6 4.8-5.6 8.8-10.4 11.2-2.4 0.8-5.6 1.6-8 1.6z m8.8-360.8c-4.8 0-8.8 0-12.8 0.8-15.2 2.4-25.6 8.8-29.6 18.4l-0.8 3.2v0.8L209.6 737.6c-0.8 3.2-0.8 6.4 0.8 8.8 1.6 3.2 4 4.8 6.4 6.4l120.8 43.2c3.2 0.8 6.4 0.8 8.8-0.8 3.2-1.6 4.8-4 6.4-6.4l97.6-271.2v-0.8l0.8-3.2c7.2-20-19.2-48.8-58.4-62.4-14.4-4.8-28.8-7.2-42.4-7.2z" fill="#BA2B21" p-id="13713">
	</path>
	<path d="M263.045473 813.517947a80 43.2 19.81 1 0 29.281144-81.286989 80 43.2 19.81 1 0-29.281144 81.286989Z" fill="#BA2B21" p-id="13714">
	</path>
	<path d="M307.2 825.6c-13.6 0-29.6-2.4-45.6-8.8-44-16-72-48-63.2-72.8 8.8-24.8 50.4-32 95.2-16 44 16 72 48 63.2 72.8-5.6 16-24.8 24.8-49.6 24.8zM248 728c-20.8 0-37.6 6.4-42.4 19.2-7.2 20 19.2 48.8 58.4 62.4 38.4 13.6 77.6 8.8 84.8-11.2 7.2-20-19.2-48.8-58.4-62.4-14.4-5.6-28.8-8-42.4-8z" fill="#BA2B21" p-id="13715">
	</path>
	<path d="M441.6 553.6c-13.6-20.8-38.4-40-69.6-52.8-28.8-11.2-56-15.2-77.6-10.4l-8 23.2c16-8 46.4-8 80 5.6 37.6 15.2 61.6 40 67.2 59.2l8-24.8zM376.8 733.6l8.8-24c-13.6-18.4-37.6-35.2-67.2-45.6-25.6-8.8-52-12-73.6-8.8-3.2 0.8-7.2 1.6-10.4 2.4l-8.8 24c5.6-3.2 12.8-6.4 21.6-7.2 19.2-3.2 41.6 0 64.8 8 34.4 12.8 57.6 33.6 64.8 51.2z" fill="#F4D31F" p-id="13716">
	</path>
	<path d="M341.6 804.8c-2.4 0-4.8 0-6.4-0.8L214.4 760c-4.8-1.6-8.8-5.6-11.2-10.4s-2.4-10.4-0.8-15.2L300 464c0-0.8 0.8-0.8 0.8-1.6s0-1.6 0.8-1.6c4.8-12 16.8-20.8 35.2-23.2 17.6-2.4 38.4 0 59.2 7.2 44 16 72 48 63.2 72.8 0 0.8-0.8 0.8-0.8 1.6s0 1.6-0.8 2.4L360 792c-1.6 4.8-5.6 8.8-10.4 11.2-2.4 0.8-5.6 1.6-8 1.6z m8.8-360.8c-4.8 0-8.8 0-12.8 0.8-15.2 2.4-25.6 8.8-29.6 18.4l-0.8 3.2v0.8L209.6 737.6c-0.8 3.2-0.8 6.4 0.8 8.8 1.6 3.2 4 4.8 6.4 6.4l120.8 43.2c3.2 0.8 6.4 0.8 8.8-0.8 3.2-1.6 4.8-4 6.4-6.4l97.6-271.2v-0.8l0.8-3.2c7.2-20-19.2-48.8-58.4-62.4-14.4-4.8-28.8-7.2-42.4-7.2z" fill="#BA2B21" p-id="13717">
	</path>
	<path d="M459.2 482.4c-22.4-7.2-52 20.8-66.4 62.4-13.6 41.6-6.4 82.4 16 89.6 0.8 0 1.6 0 1.6 0.8 0.8 0 0.8 0.8 1.6 0.8l273.6 90.4c8 2.4 17.6-1.6 20-10.4l40-121.6c2.4-8-1.6-17.6-10.4-20L462.4 483.2c-0.8 0-1.6 0-1.6-0.8-0.8 0.8-0.8 0-1.6 0z" fill="#DD4F4A" p-id="13718">
	</path>
	<path d="M691.2 730.4c-2.4 0-4 0-6.4-0.8L411.2 639.2c-0.8 0-0.8-0.8-1.6-0.8s-1.6 0-1.6-0.8c-12.8-4-20.8-16.8-24.8-35.2-3.2-17.6-0.8-38.4 5.6-60 7.2-20.8 17.6-39.2 30.4-51.2 13.6-12.8 28-17.6 40-13.6 0.8 0 0.8 0.8 1.6 0.8s1.6 0 2.4 0.8l273.6 90.4c10.4 3.2 16 14.4 12.8 25.6l-40 121.6c-2.4 8-9.6 13.6-18.4 13.6z m-240-245.6c-8 0-16.8 4-25.6 12.8-12 11.2-22.4 28.8-28.8 48-6.4 20-8.8 39.2-5.6 56 2.4 15.2 9.6 25.6 19.2 28.8h0.8l2.4 0.8L688 721.6c6.4 2.4 12.8-1.6 15.2-8l40-121.6c2.4-6.4-1.6-12.8-8-15.2L461.6 487.2h-0.8l-3.2-0.8c-1.6-0.8-4-1.6-6.4-1.6z" fill="#BA2B21" p-id="13719">
	</path>
	<path d="M695.848344 728.837438a43.2 80 18.228 1 0 50.04786-151.971088 43.2 80 18.228 1 0-50.04786 151.971088Z" fill="#BA2B21" p-id="13720">
	</path>
	<path d="M703.2 733.6c-3.2 0-6.4-0.8-8.8-1.6-12.8-4-20.8-16.8-24.8-35.2-3.2-17.6-0.8-38.4 5.6-60 7.2-20.8 17.6-39.2 30.4-51.2 13.6-12.8 28-17.6 40-13.6 12.8 4 20.8 16.8 24.8 35.2 3.2 17.6 0.8 38.4-5.6 60-7.2 20.8-17.6 39.2-30.4 51.2-9.6 10.4-20.8 15.2-31.2 15.2z m35.2-154.4c-8 0-16.8 4-25.6 12.8-12 11.2-22.4 28.8-28.8 48-6.4 20-8.8 39.2-5.6 56 2.4 15.2 9.6 25.6 19.2 28.8s20.8-0.8 32.8-12c12-11.2 22.4-28.8 28.8-48 6.4-20 8.8-39.2 5.6-56-2.4-15.2-9.6-25.6-19.2-28.8-3.2 0-5.6-0.8-7.2-0.8z" fill="#BA2B21" p-id="13721">
	</path>
	<path d="M496.8 495.2c-20 14.4-39.2 39.2-51.2 71.2-10.4 28.8-13.6 56.8-8.8 77.6l23.2 8c-8.8-16-9.6-45.6 3.2-80 14.4-38.4 38.4-63.2 56.8-68.8l-23.2-8zM679.2 554.4l-24-8c-17.6 14.4-33.6 38.4-43.2 68.8-8 25.6-10.4 52-6.4 74.4 0.8 3.2 1.6 7.2 2.4 10.4l24.8 8c-4-5.6-6.4-12.8-8-21.6-3.2-19.2-1.6-41.6 5.6-64.8 10.4-36 31.2-59.2 48.8-67.2z" fill="#F4D31F" p-id="13722">
	</path>
	<path d="M691.2 730.4c-2.4 0-4 0-6.4-0.8L411.2 639.2c-0.8 0-0.8-0.8-1.6-0.8s-1.6 0-1.6-0.8c-12.8-4-20.8-16.8-24.8-35.2-3.2-17.6-0.8-38.4 5.6-60 7.2-20.8 17.6-39.2 30.4-51.2 13.6-12.8 28-17.6 40-13.6 0.8 0 0.8 0.8 1.6 0.8s1.6 0 2.4 0.8l273.6 90.4c10.4 3.2 16 14.4 12.8 25.6l-40 121.6c-2.4 8-9.6 13.6-18.4 13.6z m-240-245.6c-8 0-16.8 4-25.6 12.8-12 11.2-22.4 28.8-28.8 48-6.4 20-8.8 39.2-5.6 56 2.4 15.2 9.6 25.6 19.2 28.8h0.8l2.4 0.8L688 721.6c6.4 2.4 12.8-1.6 15.2-8l40-121.6c2.4-6.4-1.6-12.8-8-15.2L461.6 487.2h-0.8l-3.2-0.8c-1.6-0.8-4-1.6-6.4-1.6z" fill="#BA2B21" p-id="13723">
	</path>
	<path d="M972 676c6.4-23.2-23.2-51.2-66.4-62.4-42.4-11.2-82.4-2.4-88.8 20.8v1.6c0 0.8-0.8 0.8-0.8 1.6l-74.4 278.4c-2.4 8.8 2.4 17.6 11.2 20l124 33.6c8.8 2.4 17.6-2.4 20-11.2l74.4-278.4v-1.6c0.8-1.6 0.8-1.6 0.8-2.4z" fill="#DD4F4A" p-id="13724">
	</path>
	<path d="M880.8 973.6c-1.6 0-3.2 0-5.6-0.8L752 940c-4.8-1.6-9.6-4.8-12-9.6-2.4-4.8-3.2-10.4-1.6-15.2l74.4-278.4c0-0.8 0.8-1.6 0.8-1.6v-1.6c3.2-12.8 15.2-22.4 33.6-26.4 17.6-4 38.4-3.2 60 2.4 45.6 12 76 41.6 68.8 67.2 0 0.8 0 0.8-0.8 1.6v1.6l-75.2 278.4c-1.6 4.8-4.8 9.6-9.6 12-2.4 2.4-5.6 3.2-9.6 3.2z m-9.6-360.8c-8 0-15.2 0.8-21.6 2.4-15.2 4-24.8 11.2-28 20.8V638.4c0 0.8-0.8 0.8-0.8 1.6l-74.4 278.4c-0.8 3.2-0.8 6.4 0.8 8.8 1.6 2.4 4 4.8 7.2 5.6l124 33.6c3.2 0.8 6.4 0 8.8-0.8 2.4-1.6 4.8-4 5.6-7.2L968 680v-0.8l0.8-2.4v-0.8c5.6-20.8-23.2-47.2-63.2-57.6-12-4-24-5.6-34.4-5.6z" fill="#BA2B21" p-id="13725">
	</path>
	<path d="M805.150075 988.227514a80 43.2 15.052 1 0 22.437698-83.435662 80 43.2 15.052 1 0-22.437698 83.435662Z" fill="#BA2B21" p-id="13726">
	</path>
	<path d="M840.8 997.6c-12 0-24-1.6-36.8-4.8-21.6-5.6-40-16-52.8-28-13.6-12.8-19.2-27.2-16-39.2 3.2-12.8 15.2-22.4 33.6-26.4 17.6-4 38.4-3.2 60 2.4 45.6 12 76 41.6 68.8 67.2-3.2 12.8-15.2 22.4-33.6 26.4-7.2 1.6-14.4 2.4-23.2 2.4z m-48-93.6c-8 0-15.2 0.8-21.6 2.4-15.2 4-24.8 11.2-28 20.8-2.4 9.6 2.4 20.8 13.6 32 12 11.2 29.6 20.8 49.6 25.6 20 5.6 40 6.4 56 2.4 15.2-4 24.8-11.2 28-20.8 5.6-20.8-23.2-47.2-63.2-57.6-12-3.2-24-4.8-34.4-4.8z" fill="#BA2B21" p-id="13727">
	</path>
	<path d="M961.6 714.4c-15.2-19.2-41.6-36.8-74.4-47.2-29.6-8.8-56.8-10.4-77.6-4l-6.4 24c15.2-9.6 45.6-12 80-1.6 38.4 12 64.8 34.4 71.2 52.8l7.2-24zM912 900l6.4-24.8c-15.2-16.8-40-32-71.2-40-26.4-7.2-52.8-8-74.4-2.4-3.2 0.8-6.4 1.6-9.6 3.2l-6.4 24.8c4.8-4 12-7.2 20.8-9.6 18.4-4.8 41.6-4 64.8 2.4 36.8 9.6 61.6 28.8 69.6 46.4z" fill="#F4D31F" p-id="13728">
	</path>
	<path d="M880.8 973.6c-1.6 0-3.2 0-5.6-0.8L752 940c-4.8-1.6-9.6-4.8-12-9.6-2.4-4.8-3.2-10.4-1.6-15.2l74.4-278.4c0-0.8 0.8-1.6 0.8-1.6v-1.6c3.2-12.8 15.2-22.4 33.6-26.4 17.6-4 38.4-3.2 60 2.4 45.6 12 76 41.6 68.8 67.2 0 0.8 0 0.8-0.8 1.6v1.6l-75.2 278.4c-1.6 4.8-4.8 9.6-9.6 12-2.4 2.4-5.6 3.2-9.6 3.2z m-9.6-360.8c-8 0-15.2 0.8-21.6 2.4-15.2 4-24.8 11.2-28 20.8V638.4c0 0.8-0.8 0.8-0.8 1.6l-74.4 278.4c-0.8 3.2-0.8 6.4 0.8 8.8 1.6 2.4 4 4.8 7.2 5.6l124 33.6c3.2 0.8 6.4 0 8.8-0.8 2.4-1.6 4.8-4 5.6-7.2L968 680v-0.8l0.8-2.4v-0.8c5.6-20.8-23.2-47.2-63.2-57.6-12-4-24-5.6-34.4-5.6z" fill="#BA2B21" p-id="13729">
	</path>
	<path d="M956.8 330.4l-3.2 77.6 46.4 17.6-59.2 34.4 9.6 63.2L888 464l-84.8 16 64.8-64.8-22.4-60.8 62.4 26.4z" fill="#F4D31F" p-id="13730">
	</path>
	<path d="M948.8 538.4L880 472l-95.2 17.6 72-72-24.8-67.2 68.8 28.8 54.4-56-4 85.6 52 20-64 36.8 9.6 72.8z m-65.6-74.4l55.2 52.8-8-55.2 53.6-31.2-41.6-16 3.2-70.4-43.2 44.8-56.8-24 20 54.4-56.8 57.6 74.4-12.8z" fill="#BA2B21" p-id="13731">
	</path>
</svg>
