<svg t="1641976272539" class="icon" viewBox="0 0 1024 1024" version="1.1" xmlns="http://www.w3.org/2000/svg" p-id="15977" width="200" height="200">
	<path d="M449.22 505.25c36.08-3.13 71.08 18.26 83.73 53.98 12.65 35.72-1.1 74.37-31.1 94.64 36.08-3.13 71.08 18.26 83.73 53.98 15.02 42.41-7.19 88.96-49.6 103.98-42.41 15.02-88.96-7.19-103.98-49.6-12.65-35.72 1.1-74.37 31.1-94.64-36.08 3.13-71.08-18.26-83.73-53.98-12.65-35.72 1.1-74.37 31.1-94.64-36.08 3.13-71.08-18.26-83.73-53.98-12.65-35.72 1.1-74.37 31.1-94.64-36.08 3.13-71.08-18.26-83.73-53.98-15.02-42.41 7.19-88.96 49.6-103.98s88.96 7.19 103.98 49.6c12.65 35.72-1.1 74.37-31.1 94.64 36.08-3.13 71.08 18.26 83.73 53.98 12.65 35.71-1.09 74.36-31.1 94.64z" fill="#D9302B" p-id="15978">
	</path>
	<path d="M294.45 384.13c-40.04 0-77.63-24.93-91.74-64.78-8.67-24.48-7.28-50.87 3.9-74.31 11.18-23.44 30.82-41.12 55.3-49.79 16.28-5.77 33.82-7.1 50.7-3.86 8.55 1.64 14.15 9.9 12.51 18.45-1.64 8.55-9.91 14.16-18.45 12.51-11.39-2.19-23.23-1.28-34.23 2.62-16.54 5.86-29.81 17.8-37.36 33.64-7.55 15.84-8.49 33.67-2.63 50.21 12.09 34.15 49.71 52.09 83.85 40 34.14-12.09 52.09-49.71 40-83.85a80.86 80.86 0 0 0-1.17-3.07c-3.31-8.06 0.55-17.27 8.6-20.57 8.06-3.31 17.27 0.55 20.57 8.6 0.61 1.48 1.19 3 1.72 4.51 17.89 50.54-8.66 106.21-59.19 124.1a96.666 96.666 0 0 1-32.38 5.59z" fill="#B30000" p-id="15979">
	</path>
	<path d="M350.42 542.7c-14.29 0-28.51-3.19-41.79-9.52-23.44-11.18-41.12-30.82-49.79-55.3-17.89-50.53 8.66-106.21 59.2-124.1 50.54-17.89 106.21 8.66 124.1 59.2 8.67 24.48 7.28 50.87-3.9 74.31-11.18 23.44-30.82 41.12-55.3 49.79-10.61 3.75-21.58 5.62-32.52 5.62z m0.12-163c-7.39 0-14.8 1.26-21.97 3.8-34.14 12.09-52.09 49.71-40 83.85 5.86 16.54 17.8 29.81 33.64 37.36 15.84 7.55 33.67 8.49 50.21 2.63s29.81-17.8 37.36-33.64c7.55-15.84 8.49-33.67 2.63-50.21s-17.8-29.81-33.64-37.36c-8.97-4.27-18.58-6.43-28.23-6.43z" fill="#B30000" p-id="15980">
	</path>
	<path d="M406.56 701.23c-14.29 0-28.51-3.19-41.79-9.52-23.44-11.18-41.12-30.82-49.79-55.3-17.89-50.53 8.66-106.21 59.2-124.1 24.48-8.67 50.87-7.29 74.31 3.9 23.44 11.18 41.12 30.82 49.79 55.3 17.89 50.54-8.66 106.21-59.2 124.1-10.62 3.75-21.59 5.62-32.52 5.62z m0.11-163c-7.39 0-14.8 1.26-21.97 3.8-34.15 12.09-52.09 49.71-40 83.85 5.86 16.54 17.8 29.81 33.64 37.37 15.84 7.56 33.67 8.49 50.21 2.63 34.15-12.09 52.09-49.71 40-83.85-5.86-16.54-17.8-29.81-33.64-37.36-8.97-4.29-18.58-6.44-28.24-6.44z" fill="#B30000" p-id="15981">
	</path>
	<path d="M462.85 859.71c-40.04 0-77.63-24.93-91.74-64.78-8.67-24.48-7.28-50.87 3.9-74.31s30.82-41.12 55.3-49.79c24.48-8.67 50.87-7.29 74.31 3.9 23.44 11.18 41.12 30.82 49.79 55.3 8.67 24.48 7.29 50.87-3.9 74.31s-30.82 41.12-55.3 49.79c-10.69 3.78-21.62 5.58-32.36 5.58z m-0.04-162.96c-7.39 0-14.8 1.26-21.97 3.8-16.54 5.86-29.81 17.8-37.36 33.64-7.55 15.84-8.49 33.67-2.63 50.21 12.09 34.15 49.71 52.09 83.85 40 16.54-5.86 29.81-17.8 37.36-33.64s8.49-33.67 2.63-50.21-17.8-29.81-33.64-37.36c-8.98-4.28-18.59-6.44-28.24-6.44z" fill="#B30000" p-id="15982">
	</path>
	<path d="M520.8 950.04c-6.49 0-12.57-4.04-14.86-10.51l-33.33-94.12c-2.91-8.21 1.39-17.22 9.6-20.12 8.21-2.91 17.22 1.39 20.12 9.6L535.66 929c2.91 8.21-1.39 17.22-9.6 20.12-1.74 0.62-3.51 0.92-5.26 0.92zM262.94 221.81c-6.49 0-12.57-4.04-14.86-10.51l-14.03-39.63c-2.91-8.21 1.39-17.22 9.6-20.12 8.21-2.91 17.22 1.39 20.12 9.6l14.03 39.63c2.91 8.21-1.39 17.22-9.6 20.12-1.74 0.62-3.52 0.91-5.26 0.91z" fill="#B30000" p-id="15983">
	</path>
	<path d="M666.1 490.21c34.1 12.19 57 46.22 53.61 83.96-3.39 37.74-31.99 67.14-67.72 73.06 34.1 12.19 57 46.22 53.61 83.96-4.02 44.81-43.61 77.87-88.42 73.84-44.81-4.02-77.87-43.61-73.84-88.42 3.39-37.74 31.99-67.15 67.72-73.06-34.1-12.19-57-46.22-53.61-83.96 3.39-37.74 31.99-67.15 67.72-73.06-34.1-12.19-57-46.22-53.61-83.96 3.39-37.74 31.99-67.15 67.72-73.06-34.1-12.19-57-46.22-53.61-83.96 4.02-44.81 43.61-77.87 88.42-73.84 44.81 4.02 77.87 43.61 73.84 88.42-3.39 37.74-31.99 67.14-67.72 73.06 34.1 12.19 57 46.22 53.61 83.96-3.39 37.73-32 67.14-67.72 73.06z" fill="#D9302B" p-id="15984">
	</path>
	<path d="M616.5 324.42c-2.94 0-5.9-0.13-8.87-0.4-53.39-4.8-92.93-52.14-88.14-105.53 4.8-53.39 52.15-92.93 105.53-88.14 25.87 2.32 49.28 14.58 65.92 34.51 16.65 19.93 24.53 45.15 22.21 71.02-2.32 25.86-14.58 49.28-34.51 65.92-17.64 14.75-39.43 22.62-62.14 22.62z m-0.22-162.92c-33.59 0-62.32 25.73-65.38 59.82-3.24 36.08 23.47 68.06 59.55 71.31 17.48 1.57 34.52-3.76 47.99-15.01 13.47-11.25 21.75-27.07 23.32-44.54 1.57-17.48-3.76-34.52-15.01-47.99s-27.07-21.75-44.54-23.32c-1.99-0.19-3.97-0.27-5.93-0.27z" fill="#B30000" p-id="15985">
	</path>
	<path d="M601.45 491.92c-2.94 0-5.9-0.13-8.87-0.4-25.87-2.32-49.28-14.58-65.92-34.51-16.65-19.93-24.53-45.15-22.21-71.02 2.32-25.86 14.58-49.28 34.51-65.92 19.93-16.65 45.15-24.53 71.02-22.21 25.87 2.32 49.28 14.58 65.92 34.51 16.65 19.93 24.53 45.15 22.21 71.02-2.32 25.86-14.58 49.28-34.51 65.92-17.64 14.73-39.43 22.61-62.15 22.61z m-0.28-162.93c-15.35 0-30.07 5.32-41.99 15.28-13.47 11.25-21.75 27.07-23.32 44.54-1.57 17.48 3.76 34.52 15.01 47.99s27.07 21.75 44.54 23.32c17.48 1.57 34.52-3.76 47.99-15.01 13.47-11.25 21.75-27.07 23.32-44.54 1.57-17.48-3.76-34.52-15.01-47.99s-27.07-21.75-44.54-23.32c-2.01-0.18-4.01-0.27-6-0.27z" fill="#B30000" p-id="15986">
	</path>
	<path d="M586.41 659.41c-2.94 0-5.9-0.13-8.87-0.4-53.39-4.8-92.93-52.14-88.14-105.53 2.32-25.87 14.58-49.28 34.51-65.92 19.93-16.65 45.15-24.53 71.02-22.21 25.87 2.32 49.28 14.58 65.92 34.51 16.65 19.93 24.53 45.15 22.21 71.02-2.32 25.86-14.58 49.28-34.51 65.92-17.64 14.74-39.43 22.61-62.14 22.61z m-0.29-162.93c-15.35 0-30.07 5.32-41.99 15.28-13.47 11.25-21.75 27.07-23.32 44.54-3.24 36.08 23.47 68.07 59.55 71.31 36.08 3.24 68.06-23.47 71.3-59.55 1.57-17.48-3.76-34.52-15.01-47.99-11.25-13.47-27.07-21.75-44.54-23.32-2-0.18-4-0.27-5.99-0.27z" fill="#B30000" p-id="15987">
	</path>
	<path d="M571.27 826.9c-2.9 0-5.83-0.13-8.77-0.39-25.86-2.32-49.28-14.58-65.92-34.51-16.65-19.93-24.53-45.15-22.21-71.02 2.32-25.87 14.58-49.28 34.51-65.92 19.93-16.65 45.15-24.53 71.02-22.21 53.39 4.8 92.93 52.14 88.14 105.53-4.55 50.44-47.06 88.52-96.77 88.52z m-0.19-162.92c-15.35 0-30.07 5.32-41.99 15.28-13.47 11.25-21.75 27.07-23.32 44.54s3.76 34.52 15.01 47.99c11.25 13.47 27.07 21.75 44.54 23.32 36.09 3.24 68.06-23.47 71.31-59.55 1.57-17.48-3.76-34.52-15.01-47.99-11.25-13.47-27.07-21.75-44.54-23.32-2.02-0.18-4.02-0.27-6-0.27z" fill="#B30000" p-id="15988">
	</path>
	<path d="M552.37 925.79c-0.47 0-0.95-0.02-1.43-0.06-8.67-0.78-15.07-8.44-14.29-17.11l8.93-99.45c0.78-8.67 8.47-15.07 17.11-14.29 8.67 0.78 15.07 8.44 14.29 17.11l-8.93 99.45c-0.73 8.19-7.61 14.35-15.68 14.35zM621.49 156.36c-0.47 0-0.95-0.02-1.43-0.06-8.67-0.78-15.07-8.44-14.29-17.11l3.76-41.87c0.78-8.67 8.46-15.06 17.11-14.29 8.67 0.78 15.07 8.44 14.29 17.11L637.17 142c-0.73 8.19-7.61 14.36-15.68 14.36z" fill="#B30000" p-id="15989">
	</path>
</svg>
