<svg t="1641978367376" class="icon" viewBox="0 0 1107 1024" version="1.1" xmlns="http://www.w3.org/2000/svg" p-id="2195" width="200" height="200">
	<path d="M199.999829 634.651792l106.540816 376.187438h95.968332v-249.84405" fill="#FFE359" p-id="2196">
	</path>
	<path d="M257.275498 836.902112s-1.070409 6.668123 0 0c2.237331-13.910933 26.874292-35.371762 63.952566-35.371761 54.83654 0 46.062694 209.313267 46.062694 209.313266h35.218219l-1.592453-257.328141-66.81284-9.058996L232.50693 749.431251M819.073657 450.901127s30.217127-32.691352 89.809091-196.578028c59.591965-163.886677 80.77203-198.644269 122.991779-186.233664 42.210975 12.414993 56.727304 62.360113 27.374401 161.443161-8.471149 28.567644-107.922698 197.389609-200.71051 264.162967" fill="#FFC859" p-id="2197">
	</path>
	<path d="M178.920663 151.23479m-94.226724 0a94.226723 94.226723 0 1 0 188.453447 0 94.226723 94.226723 0 1 0-188.453447 0Z" fill="#FFC859" p-id="2198">
	</path>
	<path d="M516.731297 769.983986v235.889247h99.333102s32.270207-124.1587 57.122127-223.461094" fill="#FFE359" p-id="2199">
	</path>
	<path d="M155.490106 637.494518s348.821811 355.174076 775.919493 54.72248c0 0 80.763256-227.738344-79.451566-282.285347-103.224303-29.545928-211.41899-22.351374-316.441931-22.215379-11.357744 0.166703-22.702328 0.223733-34.011816 0.280763-146.238085 0-282.728426 21.934616-282.728426 21.934616l-63.285754 227.562867" fill="#FFE359" p-id="2200">
	</path>
	<path d="M638.885173 385.11044s57.429212 165.637059-103.421714 336.735838c-26.913774 28.6159 62.553138 33.336229 123.970062 20.171073s86.58909-17.249382 86.589091-17.249382l-2.013598 64.926463s-179.306712 69.602923-343.09249-3.509539l-86.707537-28.475518c0.008774-0.004387 315.266236-318.389725 324.676186-372.598935z" fill="#FFC859" p-id="2201">
	</path>
	<path d="M516.731297 881.227584s3.483217-29.24323 65.523085-29.24323c62.053029 0-1.456459 153.884492-1.456459 153.884492h35.266476l50.111823-195.560262-149.440538 6.55845 10.967308 64.36055h-10.971695z" fill="#FFC859" p-id="2202">
	</path>
	<path d="M735.239554 726.67628v279.196953h99.337489s15.069081-60.587796 76.450911-230.537201c12.752786-35.310345 34.345222-113.937169 34.345222-154.038034" fill="#FFE359" p-id="2203">
	</path>
	<path d="M333.463193 408.330424m-306.290591 0a306.290591 306.290591 0 1 0 612.581182 0 306.290591 306.290591 0 1 0-612.581182 0Z" fill="#FFC859" p-id="2204">
	</path>
	<path d="M55.994688 367.38727a263.877817 252.186667 0 1 0 527.755634 0 263.877817 252.186667 0 1 0-527.755634 0Z" fill="#FFE359" p-id="2205">
	</path>
	<path d="M499.223086 661.938455c-9.269569 91.305033-107.646321 104.689535-226.102021 92.660591-118.4557-12.015783-212.134058-44.904546-202.86449-136.218352 9.269569-91.305033 112.814117-155.577844 231.269817-143.566448 118.4557 12.046491 206.966263 95.819177 197.696694 187.124209z" fill="#D1D1E8" p-id="2206">
	</path>
	<path d="M414.537921 537.30158c22.386469 24.878241 34.3189 55.371745 31.107672 87.032169-3.013816 29.624892-18.104832 48.681687-41.373073 60.14033-16.876494 8.317606-126.900527-97.345826-71.419109-3.018203 11.191041 19.039247-37.065114 17.402924-62.680359 14.788318-91.932363-9.330986-164.628067-34.836557-157.433513-105.711688 1.991663-19.631481 9.598588-37.648575 21.509085-53.244087 31.090125-40.710647 54.783897 43.55776 120.447363 55.867467 163.777004 30.708462 132.125353-86.663668 159.841934-55.854306z" fill="#F0F0FF" p-id="2207">
	</path>
	<path d="M381.570193 522.65803c-5.505589 42.452256-45.619614 49.629262-95.880594 43.097133-50.265366-6.518968-89.541489-24.189495-79.859549-65.895973 10.620741-45.716127 43.627951-66.132867 93.880156-59.622673 50.265366 6.518968 87.348028 39.947323 81.859987 82.421513z" fill="#BEBED6" p-id="2208">
	</path>
	<path d="M340.166412 181.27644v-16.078073H269.422888v16.078073h27.334919v13.007228h-27.334919v16.078073h27.334919v14.327691h-27.334919v16.078074h70.743524v-16.078074H312.831493v-14.327691h27.334919v-16.078073H312.831493v-13.007228z" fill="#6E6E96" p-id="2209">
	</path>
	<path d="M470.414162 179.302325c0-59.938532 48.593948-108.53248 108.532479-108.53248 59.938532 0 108.53248 48.593948 108.53248 108.53248 0 59.942919-48.593948 108.53248-108.53248 108.53248" fill="#FFC859" p-id="2210">
	</path>
	<path d="M221.535235 325.707113a30.651432 20.434288 90 1 0 40.868576 0 30.651432 20.434288 90 1 0-40.868576 0Z" fill="#6E6E96" p-id="2211">
	</path>
	<path d="M328.975371 325.707113a30.651432 20.434288 90 1 0 40.868576 0 30.651432 20.434288 90 1 0-40.868576 0Z" fill="#6E6E96" p-id="2212">
	</path>
	<path d="M500.359299 198.183642a83.825328 83.114647 90 1 0 166.229294 0 83.825328 83.114647 90 1 0-166.229294 0Z" fill="#FFE359" p-id="2213">
	</path>
	<path d="M303.680372 490.940575c0 13.63017-11.787663 11.515673-26.32154 11.515674s-26.321539 2.11011-26.321539-11.515674 11.787663-24.676443 26.321539-24.676443 26.321539 11.046273 26.32154 24.676443z" fill="#F0F0FF" p-id="2214">
	</path>
	<path d="M950.966503 174.292459s18.153088-61.504663 65.588888-61.504664-38.096041 228.738563-98.705772 269.795777c-60.627279 41.057214 33.116883-208.291113 33.116884-208.291113z" fill="#FFE359" p-id="2215">
	</path>
	<path d="M101.11858 168.944799a79.258541 78.153037 0 1 0 158.517083 0 79.258541 78.153037 0 1 0-158.517083 0Z" fill="#FFE359" p-id="2216">
	</path>
	<path d="M786.97454 1005.873233l94.682963-376.516457s77.872274-226.584583-123.943741-237.284289c0 0 249.04563-6.619867 185.812519 253.472036-63.224337 284.062051-108.953625 360.328711-108.953625 360.32871h-47.598116z" fill="#FFC859" p-id="2217">
	</path>
</svg>
