<svg t="1641976259423" class="icon" viewBox="0 0 1024 1024" version="1.1" xmlns="http://www.w3.org/2000/svg" p-id="15794" width="200" height="200">
	<path d="M902.219687 320.805843h-130.49767a20.569043 20.569043 0 0 1-20.586852-20.560139c0-11.361948 9.216-20.569043 20.586852-20.569043h21.116661a36.574609 36.574609 0 0 0 0-73.144765h-191.274295a36.574609 36.574609 0 0 0 0 73.144765h39.210295a20.569043 20.569043 0 0 1 0 41.129182h-53.884661c-30.675478 0-55.531965 24.865391-55.531965 55.531966 0 30.662122 24.856487 55.518609 55.531965 55.518608h315.325218c30.666574 0 55.523061-24.856487 55.523061-55.518608 0.004452-30.666574-24.852035-55.531965-55.518609-55.531966zM497.717426 773.988174h-75.286261a23.097878 23.097878 0 0 1 0-46.195757h23.712278a41.049043 41.049043 0 0 0 41.057948-41.071304 41.049043 41.049043 0 0 0-41.057948-41.0624H151.031096a41.0624 41.0624 0 0 0-41.0624 41.0624 41.0624 41.0624 0 0 0 41.0624 41.071304h124.37593a23.097878 23.097878 0 0 1 0 46.195757H210.36967c-34.433113 0-62.343791 27.91513-62.343792 62.348243 0 34.424209 27.910678 62.339339 62.343792 62.33934h287.347756c34.433113 0 62.343791-27.91513 62.343791-62.33934 0.004452-34.437565-27.910678-62.348243-62.343791-62.348243z" fill="#FBF0E2" p-id="15795">
	</path>
	<path d="M354.740313 183.634365l9.554365 9.558818-9.554365 9.558817-9.558817-9.558817zM354.744765 229.424974l-9.558817-9.554365 9.558817-9.558818 9.554365 9.558818zM358.515757 206.531896l9.558817-9.558818 9.558817 9.558818-9.558817 9.554365zM331.842783 206.536348l9.554365-9.56327 9.558817 9.558818-9.558817 9.558817z" fill="#F5B158" p-id="15796">
	</path>
	<path d="M829.27527 650.863304l7.862539 7.862539-7.862539 7.86254-7.86254-7.86254zM829.279722 688.542052l-7.862539-7.862539 7.862539-7.858087 7.858087 7.858087zM832.378435 669.709357l7.858087-7.858087 7.858087 7.862539-7.858087 7.858087zM810.447026 669.704904l7.858087-7.853634 7.858087 7.862539-7.858087 7.853634z" fill="#D04E39" p-id="15797">
	</path>
	<path d="M149.793391 541.072696l7.862539 7.858087-7.862539 7.862539-7.858087-7.862539zM149.784487 578.738087l-7.862539-7.862539 7.862539-7.862539 7.862539 7.862539zM152.892104 559.900939l7.862539-7.858087 7.858087 7.862539-7.858087 7.858087zM130.956243 559.900939l7.86254-7.858087 7.858087 7.862539-7.858087 7.858087z" fill="#D04E39" p-id="15798">
	</path>
	<path d="M614.204104 853.918052l7.858087 7.858087-7.858087 7.862539-7.862539-7.862539zM614.199652 891.592348l-7.862539-7.862539 7.862539-7.862539 7.858087 7.862539zM617.293913 872.7552l7.862539-7.858087 7.858087 7.866991-7.858087 7.853635zM595.362504 872.7552l7.858087-7.858087 7.862539 7.866991-7.862539 7.853635z" fill="#D04E39" p-id="15799">
	</path>
	<path d="M430.747826 873.467548l-27.536696 7.038887-86.625947-340.720418 27.532243-7.034434z" fill="#FBEDD7" p-id="15800">
	</path>
	<path d="M403.21113 891.63687a11.12153 11.12153 0 0 1-10.783165-8.387896l-86.625948-340.715965a11.130435 11.130435 0 0 1 8.031722-13.525705l27.532244-7.034434a11.12153 11.12153 0 0 1 13.543513 8.036173l86.634852 340.715966a11.130435 11.130435 0 0 1-8.031722 13.525704l-27.541148 7.034435a11.01913 11.01913 0 0 1-2.760348 0.351722z m-73.100243-343.819131l81.14087 319.145183 5.970365-1.522644-81.149774-319.145182-5.961461 1.522643z" fill="#A53A2A" p-id="15801">
	</path>
	<path d="M306.812661 717.013704c-9.189287-35.98247 12.523965-72.6016 48.49753-81.786434 35.973565-9.189287 72.583791 12.515061 81.773079 48.49753 9.193739 35.964661-12.515061 72.574887-48.493079 81.759722-35.978017 9.198191-72.597148-12.506157-81.77753-48.470818z" fill="#D04E39" p-id="15802">
	</path>
	<path d="M371.87673 778.725287a78.255861 78.255861 0 0 1-75.851687-58.960139 77.850713 77.850713 0 0 1 8.521461-59.369739 77.810643 77.810643 0 0 1 48.003339-35.951305 78.282574 78.282574 0 0 1 95.31214 56.5248c5.18233 20.270748 2.159304 41.351791-8.517009 59.351931s-27.728139 30.764522-48.007791 35.9424a78.251409 78.251409 0 0 1-19.460453 2.462052z m0.124661-134.477913c-4.67033 0-9.362922 0.592139-13.939756 1.763061-14.518539 3.708661-26.721948 12.848974-34.366331 25.738017s-9.812591 27.986365-6.099478 42.509357a56.008348 56.008348 0 0 0 68.229565 40.443548 55.723409 55.723409 0 0 0 34.370783-25.733566 55.696696 55.696696 0 0 0 6.099478-42.487095 56.035061 56.035061 0 0 0-54.294261-42.233322z" fill="#A53A2A" p-id="15803">
	</path>
	<path d="M247.393948 483.247861c-9.184835-35.98247 12.523965-72.592696 48.493078-81.777531 35.986922-9.184835 72.583791 12.519513 81.781983 48.497531 9.184835 35.969113-12.523965 72.583791-48.501983 81.773078-35.964661 9.180383-72.579339-12.523965-81.773078-48.493078z" fill="#D04E39" p-id="15804">
	</path>
	<path d="M312.489183 544.9728a78.300383 78.300383 0 0 1-75.8784-58.969043c-10.685217-41.872696 14.669913-84.631374 56.520347-95.321044a78.300383 78.300383 0 0 1 95.321044 56.5248c10.694122 41.863791-14.665461 84.618017-56.529252 95.312139-6.371061 1.633948-12.911304 2.453148-19.433739 2.453148z m0.089043-134.477913c-4.67033 0-9.35847 0.592139-13.939756 1.763061-29.958678 7.653287-48.110191 38.266435-40.456905 68.242922a56.043965 56.043965 0 0 0 68.234018 40.456904c29.967583-7.657739 48.123548-38.270887 40.47026-68.23847a56.057322 56.057322 0 0 0-54.307617-42.224417z" fill="#A53A2A" p-id="15805">
	</path>
	<path d="M279.939339 345.479791m-67.223374 0a67.223374 67.223374 0 1 0 134.446748 0 67.223374 67.223374 0 1 0-134.446748 0Z" fill="#D04E39" p-id="15806">
	</path>
	<path d="M279.881461 423.851409a78.291478 78.291478 0 0 1-75.860591-58.973496 77.86407 77.86407 0 0 1 8.517008-59.369739 77.78393 77.78393 0 0 1 48.003339-35.951304 78.291478 78.291478 0 0 1 95.31214 56.533704 77.832904 77.832904 0 0 1-8.521461 59.360835 77.841809 77.841809 0 0 1-48.003339 35.951304c-6.371061 1.620591-12.915757 2.448696-19.447096 2.448696z m0.106852-134.49127c-4.67033 0-9.35847 0.592139-13.935304 1.763061a55.7056 55.7056 0 0 0-34.366331 25.733565 55.76793 55.76793 0 0 0-6.099478 42.509357 56.039513 56.039513 0 0 0 68.225113 40.456904 55.732313 55.732313 0 0 0 34.36633-25.738017 55.692243 55.692243 0 0 0 6.099479-42.491548 56.017252 56.017252 0 0 0-54.289809-42.233322z" fill="#A53A2A" p-id="15807">
	</path>
	<path d="M273.835409 578.836035c-6.495722-25.399652 8.828661-51.248974 34.228313-57.744696l34.544417-8.810852c25.390748-6.49127 51.24007 8.833113 57.731339 34.228313l8.815305 34.535513c6.49127 25.399652-8.833113 51.24007-34.232766 57.735791l-34.535513 8.828661c-25.404104 6.477913-51.253426-8.850922-57.740243-34.237217l-8.810852-34.535513z" fill="#D8CD34" p-id="15808">
	</path>
	<path d="M328.619409 660.221774a58.546087 58.546087 0 0 1-56.751861-44.094331l-8.810852-34.539965a58.20327 58.20327 0 0 1 6.366608-44.392626 58.22553 58.22553 0 0 1 35.893426-26.886678l34.54887-8.815304a58.546087 58.546087 0 0 1 71.265948 42.260034l8.815304 34.539966c7.996104 31.289878-10.961252 63.265391-42.260035 71.2704l-34.535513 8.82866a58.902261 58.902261 0 0 1-14.531895 1.829844z m25.778087-138.302331c-3.023026 0-6.059409 0.387339-9.029009 1.144209l-34.54887 8.815305a36.08487 36.08487 0 0 0-22.256417 16.673391 36.098226 36.098226 0 0 0-3.944626 27.527791l8.815304 34.539965a36.307478 36.307478 0 0 0 44.201183 26.205496l34.526609-8.824209c19.407026-4.964174 31.165217-24.789704 26.205495-44.19673l-8.815304-34.539965a36.285217 36.285217 0 0 0-35.154365-27.345253z" fill="#A53A2A" p-id="15809">
	</path>
	<path d="M325.26247 583.257043c-4.550122-17.768626-1.055165-34.023513 7.813565-36.280765 8.850922-2.257252 19.727583 10.311235 24.273252 28.093218 4.536765 17.764174 1.024 34.014609-7.818017 36.267408-8.86873 2.261704-19.732035-10.306783-24.2688-28.079861z" fill="#ED9C3E" p-id="15810">
	</path>
	<path d="M347.416487 622.730017c-14.100035 0-27.331896-14.754504-32.937183-36.72153-3.909009-15.266504-2.889461-30.04327 2.729183-39.521948 3.178852-5.360417 7.711165-8.922157 13.116104-10.297878 1.580522-0.400696 3.21447-0.605496 4.857322-0.605496 14.09113 0 27.331896 14.754504 32.950539 36.725983 2.613426 10.231096 3.040835 20.546783 1.206539 29.050435-2.381913 11.036939-8.597148 18.601183-17.056278 20.760487-1.580522 0.400696-3.218922 0.609948-4.866226 0.609947z m-11.415374-64.276034c-1.424696 3.058643-2.7648 11.077009 0.044522 22.042713 2.800417 10.974609 7.831374 17.36793 10.5472 19.366956 1.420243-3.063096 2.769252-11.085913-0.026713-22.042713-2.809322-10.970157-7.84473-17.36793-10.565009-19.366956z" fill="#A53A2A" p-id="15811">
	</path>
	<path d="M814.640974 372.856209m-67.223374 0a67.223374 67.223374 0 1 0 134.446748 0 67.223374 67.223374 0 1 0-134.446748 0Z" fill="#D04E39" p-id="15812">
	</path>
	<path d="M814.574191 451.223374c-0.004452 0-0.004452 0 0 0a78.024348 78.024348 0 0 1-43.221704-13.049322c-36.013635-23.872557-45.893009-72.592696-22.020452-108.60633a78.180174 78.180174 0 0 1 65.357913-35.074226 78.046609 78.046609 0 0 1 43.230609 13.049321 77.837357 77.837357 0 0 1 33.515965 49.735235 77.824 77.824 0 0 1-11.482157 58.866644 78.255861 78.255861 0 0 1-65.380174 35.078678z m0.111305-134.469009a55.963826 55.963826 0 0 0-46.7968 25.110261c-17.096348 25.786991-10.021843 60.665322 15.756243 77.757217a55.808 55.808 0 0 0 30.920348 9.340661c18.895026 0 36.400974-9.389635 46.827965-25.119165a55.687791 55.687791 0 0 0 8.223165-42.135374 55.718957 55.718957 0 0 0-23.997217-35.608487 55.816904 55.816904 0 0 0-30.933704-9.345113z" fill="#A53A2A" p-id="15813">
	</path>
	<path d="M488.18087 838.344348l23.685565 15.693913 207.591513-318.1568-23.698922-15.702818z" fill="#FBEDD7" p-id="15814">
	</path>
	<path d="M511.866435 865.168696c-2.168209 0-4.309704-0.636661-6.148452-1.852105l-23.685566-15.693913a11.130435 11.130435 0 0 1-3.1744-15.36l207.582609-318.165704a11.134887 11.134887 0 0 1 15.471304-3.196661l23.69447 15.702817a11.130435 11.130435 0 0 1 3.1744 15.36l-207.591513 318.1568a11.130435 11.130435 0 0 1-9.322852 5.048766z m-8.325565-29.998748l5.128904 3.401461 195.423722-299.511096-5.137809-3.410365-195.414817 299.52z" fill="#A53A2A" p-id="15815">
	</path>
	<path d="M607.850852 678.578087m-67.227826 0a67.227826 67.227826 0 1 0 134.455652 0 67.227826 67.227826 0 1 0-134.455652 0Z" fill="#D04E39" p-id="15816">
	</path>
	<path d="M607.78407 756.945252c-0.004452 0 0 0 0 0a78.037704 78.037704 0 0 1-43.221705-13.044869c-17.452522-11.562296-29.353183-29.22407-33.511513-49.739687s-0.084591-41.418574 11.482157-58.866644a78.224696 78.224696 0 0 1 65.375721-35.08313 78.046609 78.046609 0 0 1 43.221705 13.049321c36.018087 23.872557 45.906365 72.592696 22.042713 108.601879a78.278122 78.278122 0 0 1-65.389078 35.08313z m0.120208-134.473461a56.008348 56.008348 0 0 0-46.819061 25.119166 55.727861 55.727861 0 0 0-8.223165 42.144278 55.714504 55.714504 0 0 0 23.992765 35.608487 55.852522 55.852522 0 0 0 30.920348 9.340661c18.899478 0 36.409878-9.389635 46.83687-25.123618 17.082991-25.773635 9.999583-60.651965-15.782957-77.743861a55.825809 55.825809 0 0 0-30.9248-9.345113z" fill="#A53A2A" p-id="15817">
	</path>
	<path d="M671.668313 570.581704m-67.227826 0a67.227826 67.227826 0 1 0 134.455652 0 67.227826 67.227826 0 1 0-134.455652 0Z" fill="#D04E39" p-id="15818">
	</path>
	<path d="M671.605983 648.944417a78.046609 78.046609 0 0 1-43.217253-13.040417c-36.013635-23.877009-45.897461-72.6016-22.033808-108.610783a78.251409 78.251409 0 0 1 65.380174-35.074226c15.391165 0 30.337113 4.510052 43.221704 13.040418 36.013635 23.863652 45.901913 72.579339 22.033809 108.601878a78.251409 78.251409 0 0 1-65.384626 35.08313z m0.12466-134.460104a56.030609 56.030609 0 0 0-46.823513 25.110261c-17.082991 25.782539-10.008487 60.665322 15.774053 77.757217a55.830261 55.830261 0 0 0 30.920347 9.336209 56.0128 56.0128 0 0 0 46.827966-25.114713c17.087443-25.786991 10.008487-60.665322-15.774053-77.748313a55.830261 55.830261 0 0 0-30.9248-9.340661z" fill="#A53A2A" p-id="15819">
	</path>
	<path d="M690.0736 442.61287c21.66873-32.692313 68.705948-39.784626 104.906574-15.80967a86.799583 86.799583 0 0 1 12.808904 10.373565c1.57607 1.536 2.332939 3.62407 2.052452 5.627548a5.636452 5.636452 0 0 1-3.44153 4.452174c-19.237843 8.036174-35.888974 22.064974-48.132452 40.5504-12.256835 18.485426-18.685774 39.277078-18.601183 60.131061 0.017809 2.052452-1.019548 3.873391-2.738087 4.910748-1.731896 1.032904-3.966887 1.157565-5.988174 0.302747a87.770157 87.770157 0 0 1-14.545252-7.751234c-36.18727-23.979409-47.98553-70.072765-26.321252-102.787339z" fill="#ED9C3E" p-id="15820">
	</path>
	<path d="M733.691548 564.847304a18.058017 18.058017 0 0 1-7.074505-1.438052 98.228313 98.228313 0 0 1-16.375095-8.735165c-41.285009-27.358609-54.499061-80.384-29.446678-118.205217 14.527443-21.918052 39.89593-34.998539 67.864487-34.99854 18.458713 0 36.601322 5.551861 52.464417 16.05454a97.538226 97.538226 0 0 1 14.460661 11.713669c4.064835 3.966887 6.046052 9.630052 5.275826 15.124035a16.695652 16.695652 0 0 1-10.150957 13.156174c-17.216557 7.190261-32.140243 19.785461-43.163826 36.436591-11.036939 16.646678-16.824765 35.296835-16.749078 53.938087a16.615513 16.615513 0 0 1-8.134122 14.496278 17.479235 17.479235 0 0 1-8.97113 2.4576z m14.968209-141.120556c-20.484452 0-38.916452 9.35847-49.307827 25.034574-18.271722 27.58567-7.871443 66.778157 23.191374 87.360556 2.00793 1.3312 4.100452 2.573357 6.255305 3.717565 1.402435-20.310817 8.303304-40.256557 20.186156-58.181008 11.882852-17.937809 27.576765-32.073461 45.719374-41.258296a75.637983 75.637983 0 0 0-5.872417-4.318609c-12.203409-8.080696-26.098643-12.354783-40.171965-12.354782z" fill="#A53A2A" p-id="15821">
	</path>
	<path d="M488.706226 829.137252l-26.68633-3.1744 39.708939-330.079722 26.690782 3.1744z" fill="#FBEDD7" p-id="15822">
	</path>
	<path d="M488.719583 840.267687c-0.440765 0-0.88153-0.026713-1.3312-0.080139l-26.686331-3.178852a11.143791 11.143791 0 0 1-9.732452-12.385948l39.704487-330.07527a11.085913 11.085913 0 0 1 12.363687-9.723548l26.690783 3.1744a11.130435 11.130435 0 0 1 9.741356 12.381496l-39.717843 330.084174a11.117078 11.117078 0 0 1-11.032487 9.803687z m-14.31374-24.041739l4.581287 0.547617 37.055444-307.97913-4.585739-0.547618-37.050992 307.979131z" fill="#A53A2A" p-id="15823">
	</path>
	<path d="M432.715687 648.877635c4.153878-34.869426 35.786574-59.765983 70.651548-55.607652 34.864974 4.149426 59.748174 35.773217 55.6032 70.642643-4.153878 34.864974-35.786574 59.757078-70.651548 55.598748-34.860522-4.13607-59.757078-35.773217-55.6032-70.633739z" fill="#D04E39" p-id="15824">
	</path>
	<path d="M495.927652 731.09593c-2.965148 0-5.965913-0.178087-8.922156-0.529808a74.164313 74.164313 0 0 1-49.859896-27.964105 74.208835 74.208835 0 0 1-15.480209-55.037774c4.474435-37.558539 36.329739-65.874365 74.097531-65.874365 2.965148 0 5.965913 0.178087 8.922156 0.529809 40.893217 4.866226 70.201878 42.104209 65.335652 83.010783-4.474435 37.549635-36.325287 65.865461-74.093078 65.86546z m-0.16473-127.149634c-26.499339 0-48.853704 19.883409-51.992487 46.249182a52.112696 52.112696 0 0 0 10.863304 38.635965 52.054817 52.054817 0 0 0 34.998539 19.629635c2.092522 0.249322 4.207304 0.373983 6.295374 0.373983 26.499339 0 48.853704-19.878957 51.992487-46.240278 3.41927-28.716522-17.158678-54.855235-45.866296-58.274505-2.092522-0.24487-4.207304-0.373983-6.290921-0.373982z" fill="#A53A2A" p-id="15825">
	</path>
	<path d="M509.609183 525.472278m-63.572592 0a63.572591 63.572591 0 1 0 127.145183 0 63.572591 63.572591 0 1 0-127.145183 0Z" fill="#D04E39" p-id="15826">
	</path>
	<path d="M509.680417 600.193113c-2.960696 0-5.957009-0.178087-8.913252-0.529809-40.89767-4.888487-70.201878-42.135374-65.326748-83.028591 4.478887-37.554087 36.334191-65.869913 74.101983-65.869913 2.960696 0 5.957009 0.178087 8.913252 0.529809 40.893217 4.879583 70.201878 42.122017 65.335652 83.019687-4.483339 37.558539-36.343096 65.878817-74.110887 65.878817z m-0.142469-127.171896c-26.499339 0-48.853704 19.878957-51.996939 46.244731-3.423722 28.71207 17.154226 54.859687 45.861843 58.292313 2.079165 0.249322 4.189496 0.373983 6.277565 0.373982 26.503791 0 48.862609-19.883409 52.005844-46.249182 3.41927-28.71207-17.158678-54.859687-45.866296-58.287861a53.1456 53.1456 0 0 0-6.282017-0.373983z" fill="#A53A2A" p-id="15827">
	</path>
	<path d="M516.817252 397.111652m-63.572591 0a63.572591 63.572591 0 1 0 127.145182 0 63.572591 63.572591 0 1 0-127.145182 0Z" fill="#D04E39" p-id="15828">
	</path>
	<path d="M516.906296 471.81913c-2.965148 0-5.970365-0.178087-8.935513-0.53426-40.888765-4.870678-70.201878-42.108661-65.335653-83.010783 4.478887-37.558539 36.329739-65.878817 74.093079-65.878817 2.965148 0 5.970365 0.182539 8.926608 0.53426a74.191026 74.191026 0 0 1 49.8688 27.977461 74.244452 74.244452 0 0 1 15.475757 55.042226c-4.483339 37.554087-36.334191 65.869913-74.093078 65.869913z m-0.178087-127.158539c-26.494887 0-48.8448 19.883409-51.988035 46.249183-3.414817 28.71207 17.158678 54.855235 45.866296 58.274504 2.092522 0.249322 4.211757 0.373983 6.299826 0.373983 26.494887 0 48.8448-19.878957 51.988034-46.240278a52.112696 52.112696 0 0 0-10.863304-38.64487 52.054817 52.054817 0 0 0-35.002991-19.638539 53.613078 53.613078 0 0 0-6.299826-0.373983z" fill="#A53A2A" p-id="15829">
	</path>
	<path d="M523.486609 268.969183m-63.572592 0a63.572591 63.572591 0 1 0 127.145183 0 63.572591 63.572591 0 1 0-127.145183 0Z" fill="#D04E39" p-id="15830">
	</path>
	<path d="M523.566748 343.676661c-2.960696 0-5.965913-0.178087-8.922157-0.529809-40.893217-4.870678-70.20633-42.108661-65.340104-83.015235 4.478887-37.554087 36.329739-65.874365 74.093078-65.874365 2.965148 0 5.970365 0.182539 8.926609 0.534261a74.173217 74.173217 0 0 1 49.864348 27.977461 74.248904 74.248904 0 0 1 15.480208 55.037774c-4.483339 37.554087-36.338643 65.869913-74.101982 65.869913z m-0.169183-127.158539c-26.494887 0-48.8448 19.883409-51.988035 46.24473-3.414817 28.71207 17.158678 54.859687 45.870748 58.278957 2.08807 0.249322 4.202852 0.373983 6.28647 0.373982 26.499339 0 48.853704-19.878957 51.996939-46.24473a52.1216 52.1216 0 0 0-10.863304-38.640418 52.08153 52.08153 0 0 0-35.002992-19.638539 54.592557 54.592557 0 0 0-6.299826-0.373982z" fill="#A53A2A" p-id="15831">
	</path>
</svg>
