<svg t="1641976197969" class="icon" viewBox="0 0 1024 1024" version="1.1" xmlns="http://www.w3.org/2000/svg" p-id="13348" width="200" height="200">
	<path d="M473.6 215.3v571.9c0 31 93.9 56.2 209.6 56.2 115.8 0 209.6-25.1 209.6-56.2V215.3H473.6z" fill="#FF0303" p-id="13349">
	</path>
	<path d="M683.2 736.2c-115.8 0-209.6-25.1-209.6-56.2v60.8c0 31 93.9 56.2 209.6 56.2 115.8 0 209.6-25.1 209.6-56.2V680c0.1 31.1-93.8 56.2-209.6 56.2zM683.2 306.1c-115.8 0-209.6-25.1-209.6-56.2v32.6c0 31 93.9 56.2 209.6 56.2 115.8 0 209.6-25.1 209.6-56.2v-32.6c0.1 31-93.8 56.2-209.6 56.2z" fill="#FFC74A" p-id="13350">
	</path>
	<path d="M473.6 215.3a209.6 56.2 0 1 0 419.2 0 209.6 56.2 0 1 0-419.2 0Z" fill="#CE0000" p-id="13351">
	</path>
	<path d="M473.6 215.3a209.6 56.2 0 1 0 419.2 0 209.6 56.2 0 1 0-419.2 0Z" fill="#FFC74A" p-id="13352">
	</path>
	<path d="M683.3 251.2c-89 0-146.2-14.1-172.8-26-8.7-3.9-8.7-16.1 0-20 26.5-11.9 83.7-26 172.8-26 89 0 146.2 14.1 172.8 26 8.7 3.9 8.7 16.1 0 20-26.6 12-83.8 26-172.8 26z" fill="#CE0000" p-id="13353">
	</path>
	<path d="M683.3 233.3c-74.7 0-122.7-7.1-145-13-7.3-2-7.3-8.1 0-10 22.3-6 70.3-13 145-13s122.7 7.1 145 13c7.3 2 7.3 8.1 0 10-22.3 6-70.3 13-145 13z" fill="#FF0303" p-id="13354">
	</path>
	<path d="M649.4 233.3c-0.5-2.4-12.2-59 20-107.8 20.9-31.8 54.7-52.4 100.4-61.3l9.1 46.6c-32.7 6.4-56.2 20.1-69.9 40.8-21 31.8-12.5 81.3-12.4 81.7h-47.2z" fill="#FFC74A" p-id="13355">
	</path>
	<path d="M773.9 85.4c-35.6 10.6-63.1 29-80.8 55.9-22.4 34-23.5 71.5-21.9 92.1h25.4c-0.1-0.4-8.6-49.9 12.4-81.7 13.6-20.7 37.2-34.5 69.9-40.8l-5-25.5z" fill="#231815" opacity=".2" p-id="13356">
	</path>
	<path d="M590.4 462.7H618c6.6 0 11.9-5.3 11.9-11.9 0-6.6-5.3-11.9-11.9-11.9h-27.7c-6.6 0-11.9 5.3-11.9 11.9 0.1 6.6 5.4 11.9 12 11.9zM639.2 484.5c-3.3-6.4-9.8-10.3-17-10.3h-59.9c-6.6 0-11.9 5.3-11.9 11.9s5.3 11.9 11.9 11.9h51.2l-65.2 94.6c-3.7 5.4-2.4 12.8 3 16.5 2.1 1.4 4.4 2.1 6.7 2.1 3.8 0 7.5-1.8 9.8-5.1L638 504.3c4.1-5.9 4.5-13.5 1.2-19.8z" fill="#FFC74A" p-id="13357">
	</path>
	<path d="M642.5 566.5c-4.7-4.2-21.2-17.3-36-10.7-9.4 4.2-14.2 14.3-14.2 30V664c0 6.6 5.3 11.9 11.9 11.9 6.6 0 11.9-5.3 11.9-11.9v-78.2c0-4 0.4-6.4 0.8-7.7 2.6 0.9 6.9 3.5 9.9 6.2 4.9 4.3 12.4 3.9 16.7-1 4.3-5 3.9-12.4-1-16.8zM653.8 462.7h134.3c6.6 0 11.9-5.3 11.9-11.9 0-6.6-5.3-11.9-11.9-11.9H653.8c-6.6 0-11.9 5.3-11.9 11.9 0 6.6 5.3 11.9 11.9 11.9zM703.7 468.5c-19.3 0-35.1 15.7-35.1 35.1s15.7 35.1 35.1 35.1h40.8c19.3 0 35.1-15.8 35.1-35.1s-15.7-35.1-35.1-35.1h-40.8z m52.1 35.1c0 6.3-5.1 11.3-11.3 11.3h-40.8c-6.3 0-11.3-5.1-11.3-11.3 0-6.2 5.1-11.3 11.3-11.3h40.8c6.3 0 11.3 5.1 11.3 11.3zM733.1 549.4h-24.4c-36 0-65.3 29.3-65.3 65.3s29.3 65.3 65.3 65.3h24.4c36 0 65.3-29.3 65.3-65.3 0.1-36-29.3-65.3-65.3-65.3z m39.7 53.5h-39.9v-29c0-0.2-0.1-0.5-0.1-0.7h0.5c18.6 0 34.3 12.6 39.5 29.7z m-64-29.7h0.4c0 0.2-0.1 0.4-0.1 0.7v29h-39.9c5.1-17.1 20.8-29.7 39.6-29.7z m-39.7 53.4H709v29.7h-0.3c-18.7 0-34.4-12.6-39.6-29.7z m64 29.7h-0.3v-29.7h39.9c-5.1 17.1-20.8 29.7-39.6 29.7z" fill="#FFC74A" p-id="13358">
	</path>
	<path d="M586.1 305.7c0-22.6-45.1-42.3-112.4-53.1v535.8c0 21.6 45.6 40.3 112.4 49.7V305.7z" fill="#231815" opacity=".3" p-id="13359">
	</path>
	<path d="M133.1 330.4v571.9c0 31 93.9 56.2 209.6 56.2 115.8 0 209.6-25.1 209.6-56.2V330.4H133.1z" fill="#FF0303" p-id="13360">
	</path>
	<path d="M342.7 851.3c-115.8 0-209.6-25.1-209.6-56.2v60.8c0 31 93.9 56.2 209.6 56.2 115.8 0 209.6-25.1 209.6-56.2v-60.8c0.1 31.1-93.8 56.2-209.6 56.2zM342.7 421.1C227 421.1 133.1 396 133.1 365v32.6c0 31 93.9 56.2 209.6 56.2 115.8 0 209.6-25.1 209.6-56.2V365c0.1 31-93.8 56.1-209.6 56.1z" fill="#FFC74A" p-id="13361">
	</path>
	<path d="M133.1 330.4a209.6 56.2 0 1 0 419.2 0 209.6 56.2 0 1 0-419.2 0Z" fill="#CE0000" p-id="13362">
	</path>
	<path d="M342.7 274.2c-115.8 0-209.6 25.1-209.6 56.2 0 31 93.9 56.2 209.6 56.2 115.8 0 209.6-25.1 209.6-56.2 0.1-31.1-93.8-56.2-209.6-56.2z" fill="#FFC74A" p-id="13363">
	</path>
	<path d="M342.8 366.3c-89 0-146.2-14.1-172.8-26-8.7-3.9-8.7-16.1 0-20 26.5-11.9 83.7-26 172.8-26 89 0 146.2 14.1 172.8 26 8.7 3.9 8.7 16.1 0 20-26.6 11.9-83.8 26-172.8 26z" fill="#CE0000" p-id="13364">
	</path>
	<path d="M342.8 348.4c-74.7 0-122.7-7.1-145-13-7.3-2-7.3-8.1 0-10 22.3-6 70.3-13 145-13s122.7 7.1 145 13c7.3 2 7.3 8.1 0 10-22.3 6-70.3 13-145 13z" fill="#FF0303" p-id="13365">
	</path>
	<path d="M308.9 348.4c-0.5-2.4-12.2-59 20-107.8 20.9-31.8 54.7-52.4 100.4-61.3l9.1 46.6c-32.7 6.4-56.2 20.1-69.9 40.8-21 31.8-12.5 81.3-12.4 81.7h-47.2z" fill="#FFC74A" p-id="13366">
	</path>
	<path d="M433.4 200.5c-35.6 10.6-63.1 29-80.8 55.9-22.4 34-23.5 71.5-21.9 92.1h25.4c-0.1-0.4-8.6-49.9 12.4-81.7 13.6-20.7 37.2-34.5 69.9-40.8l-5-25.5z" fill="#231815" opacity=".2" p-id="13367">
	</path>
	<path d="M249.9 577.8h27.7c6.6 0 11.9-5.3 11.9-11.9s-5.3-11.9-11.9-11.9h-27.7c-6.6 0-11.9 5.3-11.9 11.9s5.3 11.9 11.9 11.9zM298.7 599.5c-3.3-6.4-9.8-10.3-17-10.3h-59.9c-6.6 0-11.9 5.3-11.9 11.9s5.3 11.9 11.9 11.9H273l-65.2 94.6c-3.7 5.4-2.4 12.8 3 16.5 2.1 1.4 4.4 2.1 6.7 2.1 3.8 0 7.5-1.8 9.8-5.1l70.1-101.7c4.2-5.9 4.6-13.5 1.3-19.9z" fill="#FFC74A" p-id="13368">
	</path>
	<path d="M302 681.6c-4.7-4.2-21.2-17.3-36-10.7-9.4 4.2-14.2 14.3-14.2 30V779c0 6.6 5.3 11.9 11.9 11.9 6.6 0 11.9-5.3 11.9-11.9v-78.2c0-4 0.4-6.4 0.8-7.7 2.6 0.9 6.9 3.5 9.9 6.2 4.9 4.3 12.4 3.9 16.7-1 4.3-4.9 3.9-12.4-1-16.7zM313.3 577.8h134.3c6.6 0 11.9-5.3 11.9-11.9s-5.3-11.9-11.9-11.9H313.3c-6.6 0-11.9 5.3-11.9 11.9s5.3 11.9 11.9 11.9zM363.2 583.6c-19.3 0-35.1 15.7-35.1 35.1 0 19.3 15.7 35.1 35.1 35.1H404c19.3 0 35.1-15.8 35.1-35.1s-15.7-35.1-35.1-35.1h-40.8z m52.1 35.1c0 6.3-5.1 11.3-11.3 11.3h-40.8c-6.3 0-11.3-5.1-11.3-11.3 0-6.2 5.1-11.3 11.3-11.3H404c6.3 0 11.3 5.1 11.3 11.3zM392.6 664.5h-24.4c-36 0-65.3 29.3-65.3 65.3s29.3 65.3 65.3 65.3h24.4c36 0 65.3-29.3 65.3-65.3 0.1-36-29.3-65.3-65.3-65.3z m39.7 53.4h-39.9v-29c0-0.2-0.1-0.5-0.1-0.7h0.5c18.6 0 34.3 12.6 39.5 29.7z m-64-29.7h0.4c0 0.2-0.1 0.4-0.1 0.7v29h-39.9c5.1-17.1 20.8-29.7 39.6-29.7z m-39.7 53.5h39.9v29.7h-0.3c-18.7 0-34.4-12.6-39.6-29.7z m64 29.7h-0.3v-29.7h39.9c-5.1 17.1-20.8 29.7-39.6 29.7z" fill="#FFC74A" p-id="13369">
	</path>
</svg>
