<svg t="1641976053173" class="icon" viewBox="0 0 1024 1024" version="1.1" xmlns="http://www.w3.org/2000/svg" p-id="6640" width="200" height="200">
	<path d="M437.46304 130.40128a16.82944 16.82944 0 1 1 31.62112 11.5456L408.04352 309.1456a16.83968 16.83968 0 0 1-31.62624-11.55072l61.04576-167.1936z" fill="#CC1A1C" p-id="6641">
	</path>
	<path d="M435.06176 235.15136l2.40128-6.5792-0.77312-1.65376 1.65888-0.77312 2.40128-6.57408-6.14912 2.85696-6.36416-13.69088 13.68576-6.36416 2.86208 6.14912 2.39616-6.57408-0.768-1.65888 1.65888-0.77312 2.40128-6.57408-6.14912 2.85696-6.36416-13.69088 13.69088-6.36416 2.86208 6.14912 2.39616-6.57408-0.768-1.65888 1.65888-0.768 2.39616-6.57408-6.144 2.85696-6.36416-13.69088 13.68576-6.36416 2.86208 6.14912 2.40128-6.57408-0.77312-1.664 1.65888-0.768 1.57184-4.3008c0.256-0.71168 0.38912-1.42848 0.54784-2.14016l-5.86752 2.72384-6.36416-13.68576 8.33024-3.87584a16.5888 16.5888 0 0 0-4.3008-3.456l-6.1184 2.84672-2.31424-4.97152a16.60928 16.60928 0 0 0-5.0432 0.896l2.8672 6.16448-13.68576 6.36928-0.31232-0.67072-2.75456 7.55712 0.6656-0.31232 6.36416 13.68576-13.69088 6.36416-0.3072-0.66048-2.75968 7.54688 0.6656-0.31232 6.36928 13.69088-13.69088 6.36928-0.31232-0.6656-2.75968 7.552 0.67072-0.3072 6.36416 13.69088-13.68576 6.36416-0.31744-0.6656-2.75968 7.552 0.67072-0.31232 6.36928 13.69088-14.3616 6.67648-2.39616 6.5792 18.84672-8.76032 11.31008 24.32 2.40128-6.5792-9.22624-19.83488 13.68576-6.36416 2.8672 6.12352z m4.16768-97.85344l13.68576-6.36416 6.36416 13.68576-13.68576 6.36416-6.36416-13.68576z m-9.728 26.62912l13.69088-6.36416 6.3744 13.68576-13.696 6.3744-6.36928-13.696z m-9.72288 26.63424l13.68576-6.36928 6.3744 13.69088-13.696 6.36928-6.36416-13.69088z m-3.3536 40.32l-6.36928-13.69088 13.68576-6.36928 6.36928 13.69088-13.68576 6.36928z" fill="#E8DE31" p-id="6642">
	</path>
	<path d="M127.62624 831.80032a17.28 17.28 0 1 1-32.47104-11.84768l96.5376-264.39168a17.28512 17.28512 0 0 1 32.47104 11.8528l-96.5376 264.38656z" fill="#CC1A1C" p-id="6643">
	</path>
	<path d="M159.56992 843.4688a17.28512 17.28512 0 1 1-32.47616-11.85792l96.53248-264.39168a17.29024 17.29024 0 0 1 32.48128 11.85792L159.56992 843.4688z" fill="#CC1A1C" p-id="6644">
	</path>
	<path d="M191.19104 855.00928a17.28512 17.28512 0 1 1-32.47616-11.8528l96.5376-264.39168a17.3056 17.3056 0 0 1 22.17472-10.31168 17.29536 17.29536 0 0 1 10.30656 22.17472l-96.54272 264.38144z" fill="#CC1A1C" p-id="6645">
	</path>
	<path d="M222.81216 866.56a17.29024 17.29024 0 0 1-32.47616-11.85792l96.5376-264.39168a17.29024 17.29024 0 0 1 32.47616 11.85792L222.81216 866.56z" fill="#CC1A1C" p-id="6646">
	</path>
	<path d="M254.87872 877.5424a17.29024 17.29024 0 0 1-32.47104-11.85792l96.5376-264.39168a17.28512 17.28512 0 0 1 32.47104 11.85792l-96.5376 264.39168z" fill="#CC1A1C" p-id="6647">
	</path>
	<path d="M286.78144 889.18528a17.29024 17.29024 0 0 1-22.1696 10.3168 17.29536 17.29536 0 0 1-10.31168-22.1696l96.5376-264.39168a17.29024 17.29024 0 0 1 32.48128 11.85792l-96.5376 264.38656z" fill="#CC1A1C" p-id="6648">
	</path>
	<path d="M437.90848 178.26816c-59.62752-21.77024-113.16224-25.23136-119.55712-7.72096l-12.8256 35.13856 215.95648 78.85312 12.83072-35.13856c6.38464-17.50528-36.77184-49.3568-96.40448-71.13216z" fill="#D0B816" p-id="6649">
	</path>
	<path d="M328.496197 813.192799a114.95424 33.75104 20.06 1 0-215.960839-78.859528 114.95424 33.75104 20.06 1 0 215.960839 78.859528Z" fill="#E8DE31" p-id="6650">
	</path>
	<path d="M328.45312 813.19424l-215.94624-78.85824 12.8256-35.1232 215.94624 78.85824z" fill="#E8DE31" p-id="6651">
	</path>
	<path d="M21.982275 383.077642a320.44032 283.38176 20.06 1 0 602.000939 219.824623 320.44032 283.38176 20.06 1 0-602.000939-219.824623Z" fill="#B91C22" p-id="6652">
	</path>
	<path d="M120.253834 418.957693a215.82336 283.38176 20.06 1 0 405.460415 148.056551 215.82336 283.38176 20.06 1 0-405.460415-148.056551Z" fill="#CC1A1C" p-id="6653">
	</path>
	<path d="M237.336456 461.711244a91.1872 283.38176 20.06 1 0 171.310464 62.555149 91.1872 283.38176 20.06 1 0-171.310464-62.555149Z" fill="#E41B1E" p-id="6654">
	</path>
	<path d="M347.70944 345.15456l1.97632-1.67424c1.31584-1.11104 2.432-1.50528 3.33824-1.17248 0.90624 0.32768 3.34336 2.24768 7.31136 5.74976 6.74304 5.88288 11.0336 9.90208 12.87168 12.0576 1.83296 2.1504 2.69312 4.00896 2.5856 5.56032a10.4192 10.4192 0 0 1-3.28704 6.67136c-1.92 1.81248-5.44768 3.82464-10.5984 6.05184-6.51264 2.87232-10.32704 4.55168-11.42272 5.06368-8.41216 4.9152-12.45696 7.8848-12.14976 8.90368 0.25088 0.55296-1.29024 1.98656-4.64384 4.29056a128.3072 128.3072 0 0 1-11.01824 6.7584c-3.09248 1.60256-8.1408 5.5808-15.1296 11.91936-6.99392 6.34368-10.81856 10.4192-11.47904 12.22656-0.73728 2.01728-0.37376 3.51744 1.09056 4.51072 1.46432 0.98816 3.75808 1.25952 6.89152 0.80384 2.3808-0.27648 5.66784 1.95584 9.87136 6.6816 3.61984 3.83488 5.95968 6.79424 7.01952 8.88832 1.05984 2.0992 1.25952 4.04992 0.59904 5.8624-0.5888 1.6128-2.48832 3.99872-5.69344 7.15264-3.21024 3.16416-6.04672 5.31968-8.51968 6.46656-2.20672 1.024-7.63392 3.88608-16.31232 8.58624-8.67328 4.70016-13.97248 7.5008-15.88736 8.39168-4.1984 2.11968-6.58432 3.64032-7.14752 4.57728-0.56832 0.93696-0.21504 2.77504 1.06496 5.51936 1.90976 4.1216 2.14016 7.85408 0.6912 11.20256s-5.43232 8.62208-11.93472 15.82592c-1.11616 1.18784-0.27136 3.54816 2.54464 7.08096 7.67488 8.96512 6.44096 20.15232-3.69152 33.55136a45.32736 45.32736 0 0 0-5.42208 8.27904c-4.93568 9.14432-12.3392 18.0224-22.20544 26.61888-9.86624 8.59136-16.7168 12.20096-20.5312 10.79808-1.408-0.512-6.72768-4.84864-15.9488-13.0048s-14.5408-12.4928-15.9488-13.0048c-1.408-0.52224-2.0224-1.82272-1.8176-3.92192 0.19456-2.0992-0.6656-3.49184-2.58048-4.18816s-3.16416-1.95584-3.75296-3.7632a5.61664 5.61664 0 0 0-3.60448-3.70688c-1.81248-0.67072-2.59072-1.35168-2.33472-2.048 0.256-0.71168-0.83968-2.24768-3.27168-4.61824-2.44736-2.3808-3.57376-4.43904-3.38944-6.20032s-0.64512-3.53792-2.48832-5.3504c-0.78848-0.9728-0.27136-1.13152 1.536-0.47104 2.08384 0.53248 6.11328 2.00704 12.07296 4.40832 10.59328 4.09088 15.97952 6.51776 16.16384 7.2704 0.256 0.54784 0.04096 0.81408-0.63488 0.7936l-0.90624-0.32768 4.68992 3.08736c3.60448 2.00192 9.44128 3.95264 17.52064 5.87776 8.07936 1.92 12.84096 2.46784 14.28992 1.62816 1.92-0.90112 5.28896-3.71712 10.09664-8.45824 4.8128-4.74112 8.7296-9.06752 11.76064-12.9792 2.02752-2.45248 3.6608-4.58752 4.90496-6.42048 1.2288-1.82784 2.0736-3.34848 2.51392-4.55168 0.44032-1.20832 0.56832-2.19648 0.384-2.944a2.17088 2.17088 0 0 0-1.47968-1.56672c-1.80736-0.66048-3.61472-2.90816-5.39648-6.7584-2.048-4.38784-2.4832-9.28768-1.31584-14.67904 1.16736-5.39136 3.54816-9.25184 7.1424-11.58656 5.23776-3.10272 6.78912-6.42048 4.65408-9.9328-0.96768-1.72032-0.36864-5.5552 1.80224-11.48928 2.16576-5.93408 4.1472-8.86272 5.9392-8.7808 1.792 0.08704 3.52256-0.59904 5.19168-2.03776 2.70848-2.432 10.68032-7.38816 23.90528-14.87872l3.65056-2.432-10.47552-3.14368c-6.11328-2.00192-10.22976-2.7648-12.34432-2.2784-2.11968 0.48128-5.888 3.1488-11.30496 8.00768-4.87936 4.608-11.81696 9.088-20.8128 13.44-9.00608 4.35712-15.4368 6.50752-19.29728 6.47168-8.32512-0.3072-12.99968-5.31456-14.00832-15.04256-1.01888-9.71264 1.65888-23.90528 8.01792-42.56768 7.33184-21.95456 15.23712-35.49184 23.72096-40.6016 3.16416-1.80224 7.8592-0.60416 14.07488 3.59936 6.2208 4.20864 12.39552 10.39872 18.53952 18.57024 3.06688 4.08576 5.05344 6.29248 5.95968 6.62016 0.90624 0.3328 3.05664-0.87552 6.45632-3.62496 3.39968-2.74432 5.49376-4.26496 6.28224-4.55168 0.78336-0.2816 3.06688-1.8432 6.84544-4.6848 3.77344-2.83648 10.41408-7.59808 19.92192-14.27456 9.50272-6.67648 14.37184-10.3168 14.592-10.92096 0.21504-0.60416-3.42528-2.96448-10.9312-7.07072-7.50592-4.11136-11.776-7.26016-12.79488-9.46176-0.6912-1.8432-0.86528-5.44768-0.50688-10.78784 0.35328-5.34528 0.97792-8.30976 1.87904-8.88832 1.01888-0.31232 2.5344 0.07168 4.54144 1.14688 2.00192 1.07008 3.52256 2.37056 4.56704 3.8912 2.13504 3.51744 9.53856 6.33856 22.22592 8.45824l10.72128 1.52576z m-101.5552 42.96192c-4.98688-3.18976-8.64256-4.74624-10.94656-4.6848-2.304 0.07168-4.89984 1.86368-7.77216 5.37088-2.31424 2.58048-4.64384 6.63552-7.00416 12.15488-2.3552 5.5296-3.65568 9.84576-3.87584 12.9536-1.06496 13.52704-1.09056 20.46464-0.08704 20.83328 0.40448 0.14848 5.90848-2.28864 16.52736-7.30624 10.60864-5.0176 18.53952-9.07776 23.77728-12.1856l6.4-3.47648-2.10944-4.5312c-4.20864-9.05728-9.18528-15.4368-14.90944-19.12832z m102.1184 73.5488l2.97472-8.15104 4.52608 1.65376c2.816 1.02912 4.62848 2.1504 5.44256 3.3536 0.80896 1.20832 1.08032 3.13344 0.80384 5.77024-0.18944 1.75616-0.02048 3.01056 0.50176 3.77344 0.51712 0.75776 1.58208 1.4336 3.19488 2.0224 6.43584 2.35008 11.80672 7.95648 16.09216 16.8192 1.86368 3.65056 2.87744 6.18496 3.03616 7.61344 0.16896 1.42848-0.32256 3.07712-1.4592 4.93568-1.20832 2.0736-1.64864 3.7376-1.31072 4.99712 0.33792 1.26976 2.0736 3.83488 5.2224 7.72096 5.49888 6.79424 7.15264 10.71104 4.95616 11.72992-0.55296 0.256-1.3312 0.19968-2.33472-0.16896-2.816-1.024-15.11936 2.35008-36.88448 10.1376-4.4544 1.57184-6.42048 2.89792-5.90336 3.99872 0.384 0.8192 2.24256 0.71168 5.59616-0.35328 2.59584-0.87552 4.37248-1.19296 5.31968-0.96256 0.94208 0.2304 1.99168 1.408 3.1488 3.54304 1.15712 2.13504 3.37408 4.02944 6.65088 5.67296 5.28384 2.39616 7.92064 6.08768 7.92064 11.1104 0.0256 3.6608-3.93216 8.25856-11.88352 13.78816-2.76992 1.96096-4.33152 3.43552-4.69504 4.43904-0.36864 1.00864-4.15232 5.10464-11.33056 12.28288-5.2224 4.93568-8.33024 8.13568-9.3184 9.59488-0.99328 1.4592-1.02912 2.82112-0.11776 4.0704 1.30048 2.05824 5.51424 6.73792 12.66688 14.0288 7.14752 7.28064 11.32544 11.14624 12.53888 11.59168 1.60256 0.57856 2.9696 1.536 4.08064 2.85696 1.51552 1.4592 3.69664 3.456 6.53824 5.98528 2.84672 2.51392 4.50048 3.74784 4.98176 3.69664 0.68096 0.02048 2.12992 0.09728 4.36224 0.22528 2.23744 0.128 3.2 1.21856 2.90816 3.28704-0.30208 2.05824 1.75104 4.85376 6.16448 8.41216 4.40832 3.53792 7.59808 8.2432 9.56928 14.09536s2.78016 9.23136 2.45248 10.13248-2.33472 1.71008-6.01088 2.42688c-3.68128 0.70656-6.46656 0.19968-8.34048-1.5104a17.96608 17.96608 0 0 0-5.84192-3.67616c-3.01568-1.09568-12.64128-9.74336-28.84608-25.92256a719.14496 719.14496 0 0 0-14.8736-15.01184c-4.12672-4.0192-6.79424-7.15776-8.01792-9.43104-1.2032-2.94912-2.94912-6.14912-5.2224-9.6-2.2784-3.456-3.61472-5.248-4.00896-5.4016-0.60928-0.22016-3.72224 0.80896-9.344 3.09248-9.1136 3.7376-15.73376 5.30944-19.85024 4.72576-13.76256-2.28864-21.06368-4.15744-21.90336-5.6064-0.83968-1.44896-2.176-2.16576-4.00896-2.1504-1.83296 0.02048-2.53952-0.53248-2.13504-1.62816 0.40448-1.11104-0.55808-2.08896-2.87232-2.92864-2.31424-0.8448-3.34336-1.61792-3.08736-2.32448s-0.8704-2.14528-3.38432-4.31616-3.24096-3.92192-2.19136-5.23776c1.05472-1.3312 0.96768-2.49856-0.256-3.52256s-1.50528-2.432-0.84992-4.23936c0.6656-1.81248 1.5872-2.16064 2.77504-1.03936 1.18272 1.11104 1.46944 1.90464 0.84992 2.36032-1.31584 1.11104 4.77184 2.53952 18.2784 4.28032 4.52608 0.73728 7.7312 0.9984 9.64096 0.77824 4.6848-0.33792 9.7536-1.28 15.22176-2.82112 5.46304-1.54624 8.58624-2.89792 9.3696-4.11136 0.77824-1.19296 0.45568-4.21376-0.96256-9.06752-1.42848-4.84864-2.88768-8.00768-4.40832-9.48224-1.26464-0.91648-2.74944-1.2288-4.44928-0.94208-2.176 0.34816-4.10112-1.09056-5.77536-4.33152-1.66912-3.23072-2.02752-6.15424-1.06496-8.77056 0.80896-2.21696 0.75776-3.49184-0.14848-3.8144-0.90624-0.32768-1.19296-0.95232-0.86016-1.85856 0.32768-0.90624 1.2032-1.1008 2.6112-0.58368 1.40288 0.51712 2.51904-0.3328 3.32288-2.54976 0.58368-1.60768 2.80064-3.30752 6.65088-5.0944 3.84-1.78688 6.56896-2.39104 8.18176-1.80224 1.00352 0.36352 1.8176 0.32256 2.44736-0.13312 0.49152-0.73216 3.23584-1.83808 8.22272-3.32288 4.98688-1.4848 8.95488-2.49344 11.8784-3.01568 2.45248-0.48128 3.85024-0.8704 4.1984-1.20832-0.73728-0.49152 0.91648-1.2544 4.95104-2.29376l0.8192-0.384a76.39552 76.39552 0 0 0 13.568-5.30432l6.51264-3.77856 0.52736-8.01792c0.42496-5.54496 1.19808-9.82528 2.29888-12.84608 1.17248-3.21024 1.536-5.30944 1.09056-6.272-0.45056-0.96256-2.05312-1.7152-4.81792-2.27328-7.81312-1.70496-12.672 0.0512-14.58688 5.27872-1.1008 3.01568-2.24256 4.88448-3.40992 5.59616-1.1776 0.7168-3.70688 3.26656-7.58272 7.66976-3.8912 4.39296-6.08768 7.30112-6.6048 8.70912-0.5888 1.6128-1.792 2.70848-3.60448 3.3024-1.81248 0.59392-2.61632 1.3824-2.4064 2.37056 0.20992 0.98816-1.16224 2.08896-4.11136 3.29216-9.73824 4.1984-12.93312-2.66752-9.57952-20.60288 0.53248-2.08384 1.0752-4.51072 1.63328-7.2704 2.03776-7.46496 4.01408-12.10368 5.93408-13.91616 1.91488-1.80736 7.936-4.39808 18.05824-7.77216 3.62496-1.1776 5.888-2.23744 6.79936-3.16416 0.91136-0.9216 1.96608-3.33824 3.16416-7.23456z m63.61088-85.21728c2.18112-0.33792 5.4784 0.29184 9.91232 1.90976 4.21888 1.54112 7.2704 3.79904 9.15456 6.76352 1.87904 2.96448 2.37056 5.99552 1.47456 9.09312-0.66048 1.81248-0.83456 3.05664-0.512 3.74272 0.31744 0.68608 1.1776 1.28512 2.5856 1.80224 3.74272 1.59744 6.35904 4.1472 7.81824 7.64416 1.45408 3.49696 1.41312 7.36256-0.128 11.58656-1.61792 4.4288-3.6352 7.45472-6.04672 9.07776-2.432 1.62816-6.35392 2.69824-11.78624 3.2256-7.0656 0.6144-11.07968 0.96768-12.032 1.08032-0.27648 0.128-0.3584 0.04096-0.24576-0.26112a2.688 2.688 0 0 1 0.68608-0.9472c0.34816-0.32768 0.41984-0.53248 0.22016-0.60416-0.4096-0.14848-1.63328 0.08704-3.68128 0.71168-3.74272 0.91648-6.78912 0.94208-9.09824 0.09728-2.30912-0.8448-4.49024-0.95744-6.54336-0.33792-1.57696 0.56832-2.39104 1.06496-2.432 1.50528-0.05632 0.44032 0.57856 1.69472 1.87392 3.7632 9.90208 14.1056 16.50176 25.06752 19.80928 32.88576 0.6912 1.85344 1.31072 3.28192 1.86368 4.2752 0.54272 0.9984 1.01888 1.73568 1.408 2.22208 0.39424 0.49152 0.70656 0.7168 0.95232 0.6912 0.2304-0.03072 0.6656-0.27136 1.29024-0.72704 1.18784-1.38752 1.92-0.89088 2.19136 1.48992-0.02048 0.67584 0.02048 1.48992 0.13312 2.44224 0.08704 4.13696 3.85024 13.83424 11.27424 29.09184 5.51424 11.136 8.6528 17.99168 9.43616 20.55168 0.77312 2.56 0.64 5.42208-0.39936 8.576-1.03936 3.15904-1.84832 4.9152-2.43712 5.26336-0.5888 0.3584-1.85344 0.07168-3.7888-0.86528-2.54464-1.15712-5.22752-3.33312-8.04864-6.53312-2.82112-3.18976-4.77184-6.12864-5.84704-8.80128-1.84832-4.32128-4.58752-9.94304-8.21248-16.85504-3.6352-6.91712-5.75488-10.48576-6.35904-10.70592-1.00864-0.36864-1.26976-1.2032-0.7936-2.5088s-2.65216-9.2928-9.38496-23.95648c-6.73792-14.65344-12.02176-24.85248-15.85664-30.58688l-5.53472-9.20576-10.71104 1.21856c-17.6896 2.21184-29.64992 2.176-35.88096-0.1024-1.60768-0.5888-1.93024-1.27488-0.95744-2.05824 0.96768-0.78848 1.8176-0.75776 2.53952 0.06656 0.72704 0.83968 1.24928 0.79872 1.58208-0.1024 0.32768-0.90624 2.05824-0.95744 5.18656-0.16384 3.12832 0.80384 4.8128 0.5632 5.05856-0.7168 0.23552-1.28 1.76128-1.408 4.5824-0.37888s4.80256 1.06496 5.94944 0.11776c1.14688-0.95232 4.08576-1.52576 8.84224-1.73056 4.74624-0.2048 7.47008-0.63488 8.1664-1.29024 0.69632-0.65536-0.76288-4.78208-4.37248-12.37504-3.61472-7.58784-4.80256-12.47232-3.54816-14.63808 1.24416-2.16064 2.42176-4.75648 3.52256-7.77728 0.73728-2.01216 1.62304-3.34848 2.65728-3.9936s3.04128-0.9984 6.03136-1.0496c4.67968-0.34304 11.67872-1.55136 20.992-3.62496 9.31328-2.06848 14.57152-2.88768 15.77472-2.44736 1.20832 0.44032 1.8688 0.512 1.97632 0.20992 0.11264-0.3072 0.76288-1.14688 1.95584-2.53952 0.4864-0.73216 0.62464-1.2544 0.39424-1.56672-0.22528-0.3072-0.97792-0.57856-2.25792-0.82432l-2.52928-0.58368c0.06144-0.19456 0.77824-0.27648 2.12992-0.24576z m-68.52096 182.97344a6.2976 6.2976 0 0 0 0.896-1.03936c0.24576-0.36352 0.35328-0.67072 0.32768-0.90624-0.03072-0.23552-0.14336-0.39424-0.34304-0.46592-1.4848-0.31232-3.80416-0.36352-6.95808-0.14848-3.15392 0.22016-5.39136 0.54784-6.68672 0.98304-1.64864 0.76288-3.02592 0.9472-4.13184 0.54272-1.11104-0.4096-3.50208-0.26112-7.18336 0.45056l-5.93408 1.25952 2.41152 4.63872c1.52576 3.3024 2.70336 5.08928 3.5072 5.38624 0.80384 0.29696 1.1776 1.28512 1.13664 2.98496-0.0512 1.6896 0.42496 2.71872 1.43872 3.09248 0.60416 0.22016 3.9168-1.99168 9.94304-6.6304 6.03136-4.64384 9.88672-8.02304 11.57632-10.14784z m84.60288-154.86464c-3.00032-4.28544-5.13024-5.632-6.39488-4.0448-0.22016 0.60416-0.47104 0.96768-0.7424 1.09568-0.27648 0.128-0.48128 0.0512-0.60928-0.22016-1.13152-0.64-10.01472 0.56832-26.62912 3.61472-5.45792 1.2032-8.59136 1.65376-9.39008 1.36192-0.80896-0.29696-2.54976 0.09728-5.2224 1.17248l-4.42368 1.80736 2.3296 3.93216a51.0976 51.0976 0 0 0 5.97504 7.99744c1.77152 2.01728 3.19488 3.10784 4.2752 3.2768 1.08032 0.16384 3.93216-0.15872 8.56576-0.97792 11.648-1.90464 21.16608-5.49888 28.57472-10.7776l6.31808-4.19328-2.62656-4.0448z" fill="#E8DE31" p-id="6655">
	</path>
	<path d="M524.25728 149.4784a16.82944 16.82944 0 1 1 30.49984-14.25408l75.36128 161.24928a16.82944 16.82944 0 1 1-30.49984 14.25408l-75.36128-161.24928z" fill="#CC1A1C" p-id="6656">
	</path>
	<path d="M468.631215 262.178153a33.75616 114.95424 64.952 1 0 208.286373-97.33805 33.75616 114.95424 64.952 1 0-208.286373 97.33805Z" fill="#E8DE31" p-id="6657">
	</path>
	<path d="M802.46272 864.02048a17.29536 17.29536 0 0 1-31.32416 14.63808l-119.16288-255.0016a17.28512 17.28512 0 1 1 31.32928-14.62784l119.15776 254.99136z" fill="#CC1A1C" p-id="6658">
	</path>
	<path d="M833.27488 849.62304a17.29024 17.29024 0 0 1-31.32928 14.63296l-119.15776-254.99136a17.28 17.28 0 0 1 8.34048-22.97856 17.28 17.28 0 0 1 22.98368 8.34048l119.16288 254.99648z" fill="#CC1A1C" p-id="6659">
	</path>
	<path d="M863.76448 835.36896a17.28512 17.28512 0 1 1-31.31904 14.63808l-119.16288-254.99648a17.29024 17.29024 0 0 1 31.32416-14.63296l119.15776 254.99136z" fill="#CC1A1C" p-id="6660">
	</path>
	<path d="M894.26432 821.12a17.28 17.28 0 1 1-31.31904 14.63296L743.7824 580.7616a17.28 17.28 0 1 1 31.31392-14.62784l119.168 254.98624z" fill="#CC1A1C" p-id="6661">
	</path>
	<path d="M924.67712 806.14912a17.28 17.28 0 1 1-31.31904 14.63296l-119.16288-254.99136a17.28512 17.28512 0 1 1 31.31904-14.63296l119.16288 254.99136z" fill="#CC1A1C" p-id="6662">
	</path>
	<path d="M955.4432 791.77216a17.29024 17.29024 0 0 1-31.32928 14.63808l-119.15264-254.99136a17.27488 17.27488 0 0 1 8.3456-22.97856 17.27488 17.27488 0 0 1 22.97344 8.34048l119.16288 254.99136z" fill="#CC1A1C" p-id="6663">
	</path>
	<path d="M468.65408 262.20032L676.9408 164.864l15.84128 33.8944-208.28672 97.3312z" fill="#E8DE31" p-id="6664">
	</path>
	<path d="M930.900216 708.556085a33.75616 114.95424 64.952 1 0-208.286373 97.33805 33.75616 114.95424 64.952 1 0 208.286373-97.33805Z" fill="#E8DE31" p-id="6665">
	</path>
	<path d="M930.94912 708.608l-208.29184 97.33632-15.83616-33.88416 208.29184-97.34144zM596.7616 225.11616l-2.96448-6.33856-1.72032-0.62464 0.62976-1.72032-2.96448-6.33856-2.31424 6.36928-14.18752-5.15584 5.1456-14.18752 6.3744 2.31424-2.96448-6.33856-1.72032-0.62464 0.62464-1.72032-2.96448-6.34368-2.30912 6.3744-14.19264-5.15584 5.15072-14.19264 6.37952 2.31936-2.9696-6.34368-1.7152-0.61952 0.61952-1.72032-2.96448-6.3488-2.31936 6.36928-14.18752-5.15072 5.1456-14.18752 6.37952 2.31936-2.96448-6.33856-1.72032-0.62976 0.62464-1.7152-1.94048-4.15232c-0.32256-0.68608-0.73728-1.28512-1.13152-1.89952l-2.21184 6.07744-14.18752-5.15072 3.12832-8.63744a16.54784 16.54784 0 0 0-5.4784 0.60928l-2.30912 6.34368-5.15072-1.87392a16.88064 16.88064 0 0 0-2.92352 4.20352l6.38464 2.32448-5.1456 14.18752-0.69632-0.24576 3.4048 7.28064 0.256-0.6912 14.18752 5.1456-5.16096 14.19264-0.68608-0.24576 3.4048 7.27552 0.24576-0.68608 14.19264 5.15072-5.15072 14.18752-0.6912-0.24576 3.39968 7.28064 0.256-0.68608 14.18752 5.15072-5.15072 14.18752-0.69632-0.25088 3.4048 7.28576 0.256-0.69632 14.18752 5.15072-5.40672 14.88896 2.95936 6.33856 7.10144-19.53792 25.20576 9.14944-2.96448-6.33856-20.56192-7.45984 5.16096-14.19264 6.38976 2.30912z m-66.37568-72.01792l5.15072-14.18752 14.18752 5.1456-5.15072 14.19264-14.18752-5.15072z m12.0064 25.68192l5.1456-14.18752 14.19264 5.15072-5.15584 14.19264-14.1824-5.15584z m12.00128 25.68704l5.1456-14.18752 14.18752 5.15072-5.15072 14.19264-14.1824-5.15584z m26.19392 30.83776l-14.19264-5.15072 5.15072-14.18752 14.19264 5.15072-5.15072 14.18752z" fill="#E8DE31" p-id="6666">
	</path>
	<path d="M410.026823 622.129354a283.37664 320.44032 64.952 1 0 580.608006-271.334366 283.37664 320.44032 64.952 1 0-580.608006 271.334366Z" fill="#B91C22" p-id="6667">
	</path>
	<path d="M504.80877 577.838889a283.37152 215.82848 64.952 1 0 391.061098-182.753793 283.37152 215.82848 64.952 1 0-391.061098 182.753793Z" fill="#CC1A1C" p-id="6668">
	</path>
	<path d="M617.718266 525.073586a283.37664 91.1872 64.952 1 0 165.222711-77.213196 283.37664 91.1872 64.952 1 0-165.222711 77.213196Z" fill="#E41B1E" p-id="6669">
	</path>
	<path d="M538.74688 406.10304c0.50688-2.4064 2.07872-3.95264 4.736-4.6592 2.66752-0.6912 5.28896-0.29184 7.89504 1.2032 2.69824 1.72544 5.35552 5.36576 7.9616 10.93632l3.90144 8.35072 5.16608-14.21824c5.0688-12.9536 11.84256-21.40672 20.3008-25.36448 2.23232-1.03936 6.41024-1.97632 12.53376-2.80576 6.12864-0.82944 10.38336-0.98816 12.78976-0.4864 11.26912 2.6112 18.7136 6.05184 22.33344 10.32192 3.6352 4.28032 4.13184 10.28608 1.50528 18.02752-2.6368 8.2944-3.00032 15.65184-1.0752 22.08256 5.08416 15.53408 12.416 33.55136 21.98528 54.03648a264.6784 264.6784 0 0 1 10.60864 26.5984 1534.3616 1534.3616 0 0 0 7.66464 22.0672c1.792 5.00224 2.85184 8.43264 3.18976 10.31168 0.3328 1.88416 0.8192 4.36736 1.45408 7.46496 0.62976 3.0976-0.04096 5.44768-2.01216 7.04-1.96608 1.60256-2.34496 3.68128-1.152 6.24128 1.19808 2.56512 2.00192 6.32832 2.42176 11.27936 0.45056 3.87072 1.11104 6.27712 1.95584 7.22944 0.85504 0.96256 3.46112 2.31936 7.81824 4.08576 5.98016 2.36032 10.13248 4.42368 12.45184 6.18496 2.31936 1.77152 3.49696 3.8656 3.54304 6.28224 0.32768 4.18816-0.34816 6.8096-2.0224 7.86944-1.67936 1.0496-5.25824 0.96256-10.71616-0.2816-6.56384-1.26976-10.63936-2.42688-12.20608-3.46112-1.57184-1.02912-4.7104-1.93536-9.4208-2.72384-2.944-0.51712-5.34016-0.55296-7.168-0.10752-1.8176 0.44032-4.46976 1.75104-7.936 3.9168-3.47648 2.16576-5.71904 3.88608-6.73792 5.18656-1.024 1.28512-1.44896 2.97984-1.29536 5.07392 0.09728 4.8384-2.64192 14.53056-8.192 29.07136-5.5552 14.53568-10.44992 24.832-14.67392 30.8736-1.14688 1.61792-2.18624 2.44736-3.11808 2.47808-0.93696 0.03072-2.64704-0.8704-5.13024-2.69824-5.28896-3.76832-9.3696-7.41888-12.24192-10.96192-2.88256-3.53792-5.56544-8.25856-8.04352-14.16192-1.43872-3.6608-1.34144-6.35904 0.29696-8.06912 1.64352-1.72032 5.57568-10.1376 11.81184-25.2672l9.33888-22.68672-6.03648-2.46784c-4.0192-1.64352-6.31808-3.08224-6.90176-4.31104-0.5632-1.21856-1.92512-2.07872-4.05504-2.58048-2.12992-0.49152-4.33152-2.30912-6.61504-5.45792-2.28352-3.13856-6.59968-7.15264-12.96384-12.05248l-9.53856-7.35232-4.80256-18.10944c-3.52256-12.19584-5.94432-22.31808-7.27552-30.3872-3.18976-20.7616-5.64736-33.85856-7.3728-39.296a186.04032 186.04032 0 0 1-6.22592-20.29568c-1.88928-7.5264-2.70848-11.89376-2.4576-13.09696 0.4864-1.85856-1.03936-8.60672-4.5824-20.2496-1.62304-5.20192-2.19136-8.73984-1.69472-10.60352z m83.11808 132.13696c0.99328-0.47104 1.06496-1.64864 0.1792-3.54816-0.88576-1.88416-2.59072-3.47136-5.07392-4.75136-1.52064-0.9216-2.47296-1.21344-2.8672-0.90112-0.39424 0.32256-0.83968 1.68448-1.35168 4.09088-0.57344 5.15584 0.512 8.04352 3.24096 8.66816 0.65024 0.24064 1.47968-0.02048 2.49344-0.76288 1.24928-1.39776 2.37568-2.32448 3.3792-2.79552z m-6.77888-30.6176c-0.41472-0.89088-0.99328-1.09568-1.72032-0.62464l-5.27872 3.49184c-2.80064 1.85344-3.9936 3.22048-3.57376 4.11136 1.37728 5.8624 2.78016 8.87296 4.20864 9.02144 0.87552 0.13824 2.2528-2.2784 4.15232-7.23456 1.88928-4.95616 2.63168-7.87456 2.21184-8.76544z m-10.86976-38.07744c2.0992-8.85248 2.43712-12.94336 0.98304-12.26752-1.45408 0.68096-4.57216 4.31104-9.36448 10.89024-6.95296 9.4976-7.5776 16.0256-1.83296 19.584 3.5584 2.4064 6.95808-3.66592 10.2144-18.20672z m-3.4304-70.04672c-0.384-1.99168-0.8192-3.20512-1.30048-3.66592-0.4864-0.44544-1.56672-0.14336-3.24608 0.90624-2.79552 1.57696-6.7584 6.14912-11.904 13.71136-5.15584 7.56736-8.448 13.57824-9.89184 18.048-1.1008 4.04992-1.17248 9.2416-0.24576 15.58528 0.93696 6.35392 2.57536 10.5984 4.9408 12.75392 1.07008 1.13152 2.51904 1.33632 4.36224 0.6144 1.82272-0.7168 3.21536-2.11456 4.15744-4.18304 0.5888-1.62816 4.51072-4.2752 11.75552-7.936 4.352-2.304 7.1424-4.01408 8.38656-5.13536 1.23904-1.12128 1.65888-2.40128 1.25952-3.84512-4.96128-16.40448-7.3472-25.87648-7.16288-28.40064 0.04608-2.2016-0.31744-5.0176-1.11104-8.45312z m32.4352 102.49216c-1.41824-4.76672-2.83648-7.22432-4.25984-7.3728-1.42848-0.14848-4.096 4.89984-7.99744 15.1296-3.29728 8.05888-4.70016 13.47072-4.224 16.22016 0.4864 2.76992 2.86208 4.37248 7.13216 4.80768 2.85696 0.30208 5.87264-1.64864 9.06752-5.8624 2.61632-3.11808 3.95264-5.91872 4.01408-8.3968 0.06656-2.46272-1.17248-7.30624-3.73248-14.52544z m-13.7472-35.5072c-2.49856-5.34528-4.08576-7.86432-4.75136-7.54688-0.45568 0.2048-1.792 3.00544-4.01408 8.38656-2.24256 5.38624-4.3008 10.69568-6.20032 15.9232s-2.67776 7.90528-2.36032 8.02304c0.4352 0.34304 3.16416-1.95072 8.18688-6.87616 5.02784-4.92544 8.42752-7.808 10.20928-8.64256 1.11104-0.51712 1.60768-1.36192 1.46944-2.51904-0.13312-1.15712-0.97792-3.39968-2.53952-6.74816z m47.57504 91.34592c-1.85344-0.4864-3.57888 0.04608-5.15584 1.60256-1.59744 1.55136-2.52928 3.75296-2.82624 6.59968-0.44032 4.28544-1.0496 6.59968-1.82272 6.95808-0.78336 0.36864-0.81408 1.33632-0.08704 2.88768 0.73728 1.56672 0.4608 3.31776-0.79872 5.25824-1.05472 2.40128-1.14688 3.9424-0.28672 4.608 0.86528 0.6912 3.10784 0.86016 6.74304 0.51712 3.0976-0.3584 5.12512-1.10592 6.08256-2.23744 0.96768-1.12128 2.23744-4.37248 3.80928-9.71264 3.21024-9.3696 3.47136-14.91456 0.768-16.64512a2.48832 2.48832 0 0 0-2.46784-0.07168 4.9152 4.9152 0 0 1-3.95776 0.23552z m44.31872-234.43456c-7.7056-16.47616-12.26752-26.69568-13.71648-30.63808-1.4336-3.9424-1.47968-6.2208-0.13824-6.85568 1.77664-0.82432 3.07712-0.95232 3.88608-0.38912 0.81408 0.58368 6.93248 11.35616 18.36544 32.3328 11.42784 20.98688 18.92352 32.95232 22.48192 35.90144 2.36032 2.15552 6.37952 3.9424 12.06784 5.35552a68.8128 68.8128 0 0 0 16.27648 2.16064c3.51744-0.01024 7.92576 0.8448 13.2096 2.57536 5.28896 1.7408 8.29952 3.38432 9.03168 4.9408 0.83456 1.78688-4.20352 6.9888-15.104 15.60576-4.95104 3.9424-8.82176 7.2448-11.63776 9.92256l-4.38272 3.67104 8.00256 21.504c4.9152 13.98784 8.59648 24.20736 11.07456 30.64832 3.47648 9.77408 11.4688 27.88864 23.96672 54.33856 12.49792 26.45504 20.13696 41.47712 22.90176 45.07136a150.35904 150.35904 0 0 1 15.22688 23.00416c4.29056 8.02816 6.76352 14.47936 7.3984 19.33824 1.07008 5.74464 1.14688 8.832 0.26112 9.25184-5.27872 3.81952-9.86624 5.01248-13.78816 3.584a90.2656 90.2656 0 0 0-9.49248-2.88768c-4.37248-1.21344-10.15808-4.00896-17.34656-8.37632-7.19872-4.37248-12.78976-8.47872-16.75776-12.31872-5.1456-5.20192-11.29984-10.67008-18.45248-16.41472-7.16288-5.74464-11.07456-9.33376-11.76064-10.78272-0.67584-1.44896-3.49696 0.95744-8.43776 7.19872-4.95104 6.25152-9.6768 10.21952-14.17728 11.90912-4.49536 1.69472-6.93248 2.16064-7.296 1.37728-0.3584-0.77312-1.90464-1.75104-4.62848-2.92352-9.35936-3.76832-16.85504-7.04-22.5024-9.83552-1.6384-0.5888-2.5856-1.3056-2.83136-2.14016-0.26112-0.83456-0.0256-2.2272 0.68608-4.18304 0.74752-3.06176 1.65888-4.84864 2.78016-5.376 1.34144-0.61952 3.9424-5.36576 7.80288-14.22848a478.93504 478.93504 0 0 0 11.136-27.99616c6.4512-19.29728 11.29472-42.32192 14.53056-69.07904 1.36704-13.93152 0.91648-19.82976-1.34656-17.6896-0.55296 0.5376-4.65408 5.43232-12.26752 14.68928-6.71232 8.28928-12.27264 13.94688-16.70656 16.96256-4.41856 3.02592-9.76384 4.50048-16.03584 4.44416-5.84704 0.2816-9.40544 0.05632-10.71616-0.69632-1.29024-0.74752-2.46272-0.2048-3.50208 1.63328-0.7168 1.96096-1.28 2.50368-1.69984 1.60768-0.52224-1.11104-0.512-3.1488 0-6.10304 0.38912-2.0736 1.22368-3.62496 2.51392-4.6336 1.29536-1.01376 4.16256-2.56 8.6272-4.64384 5.2224-2.16064 9.50272-4.91008 12.83584-8.23808 3.33824-3.31776 10.13248-11.44832 20.36736-24.3712 5.46304-6.89152 8.448-10.52672 8.96-10.90048 0.49664-0.37376 2.27328-2.21696 5.33504-5.55008l4.9152-5.15072-6.68672-15.18592c-4.46464-10.12736-12.2112-27.27424-23.22944-51.44064z m64.27648 158.44352c-0.72704-2.0992-1.41312-4.01408-2.07872-5.74464a76.5952 76.5952 0 0 0-1.78176-4.25472l-0.62976-1.33632c-0.6656 0.31232-1.04448 2.25792-1.14688 5.82656-0.09216 3.57376 0.11264 6.1952 0.6144 7.85408 1.02912 2.77504 1.24928 4.7104 0.67584 5.79072-1.03936 1.84832-1.90464 9.57952-2.59584 23.19872-0.55808 8.6784-1.6384 15.49312-3.26144 20.45952s-2.18624 7.94112-1.72032 8.93952c0.4608 0.9984 6.33856 3.42016 17.62304 7.23456 11.27936 3.81952 18.37568 6.8096 21.29408 8.97536 5.82656 4.33664 6.97344 2.44736 3.44576-5.67808a33.6896 33.6896 0 0 0-2.2016-3.86048c-7.52128-14.93504-16.93696-37.4016-28.2368-67.4048z" fill="#E8DE31" p-id="6670">
	</path>
</svg>
