<svg t="1641976087382" class="icon" viewBox="0 0 1024 1024" version="1.1" xmlns="http://www.w3.org/2000/svg" p-id="7379" width="200" height="200">
	<path d="M582.62 564.966h-141.24c-117.008 0-211.862-94.854-211.862-211.862S324.372 141.242 441.38 141.242h141.242c117.008 0 211.862 94.854 211.862 211.862-0.002 117.01-94.854 211.862-211.864 211.862z" fill="#FF4B4B" p-id="7380">
	</path>
	<path d="M441.38 353.104c0-114.842 65.716-208.112 147.662-211.538-2.152-0.064-4.252-0.324-6.42-0.324H441.38c-117.01 0-211.862 94.854-211.862 211.862s94.854 211.862 211.862 211.862h141.242c2.168 0 4.268-0.26 6.42-0.324-81.946-3.426-147.662-96.696-147.662-211.538zM512 0a17.652 17.652 0 0 0-17.656 17.656v70.62h35.31V17.656A17.65 17.65 0 0 0 512 0z" fill="#C83741" p-id="7381">
	</path>
	<path d="M441.38 759.172a17.652 17.652 0 0 1-17.656-17.656v-52.966c0-9.75 7.896-17.656 17.656-17.656s17.656 7.906 17.656 17.656v52.966a17.652 17.652 0 0 1-17.656 17.656z" fill="#FFCF65" p-id="7382">
	</path>
	<path d="M512 847.448m-35.31 0a35.31 35.31 0 1 0 70.62 0 35.31 35.31 0 1 0-70.62 0Z" fill="#FFB450" p-id="7383">
	</path>
	<path d="M506.07 883.242c-17.362 2.824-29.38 19.128-29.38 36.716v86.386a17.658 17.658 0 0 0 17.656 17.656h35.31a17.658 17.658 0 0 0 17.656-17.656v-88.276c-0.002-21.446-19.12-38.424-41.242-34.826zM653.242 353.104c0-77.22-16.064-157.566-46.672-204.94-3.892-6.028-6.294-12.842-6.294-20.016V88.276a17.658 17.658 0 0 0-17.656-17.656h-141.24a17.658 17.658 0 0 0-17.656 17.656v39.872c0 7.174-2.402 13.99-6.294 20.016-30.608 47.374-46.672 127.72-46.672 204.94s16.064 157.566 46.672 204.94c3.892 6.028 6.294 12.842 6.294 20.016v39.872a17.658 17.658 0 0 0 17.656 17.656h141.242a17.658 17.658 0 0 0 17.656-17.656V578.06c0-7.174 2.402-13.99 6.294-20.016 30.606-47.374 46.67-127.722 46.67-204.94zM481.104 141.242h61.794c35.414 0 75.034 90.604 75.034 211.862s-39.62 211.862-75.034 211.862h-61.794c-35.414 0-75.034-90.604-75.034-211.862s39.62-211.862 75.034-211.862z" fill="#FFCF65" p-id="7384">
	</path>
	<path d="M441.38 653.242m-17.656 0a17.656 17.656 0 1 0 35.312 0 17.656 17.656 0 1 0-35.312 0Z" fill="#FFB450" p-id="7385">
	</path>
	<path d="M582.62 759.172a17.652 17.652 0 0 1-17.656-17.656v-52.966a17.652 17.652 0 0 1 17.656-17.656 17.652 17.652 0 0 1 17.656 17.656v52.966a17.65 17.65 0 0 1-17.656 17.656z" fill="#FFCF65" p-id="7386">
	</path>
	<path d="M582.62 653.242m-17.656 0a17.656 17.656 0 1 0 35.312 0 17.656 17.656 0 1 0-35.312 0Z" fill="#FFB450" p-id="7387">
	</path>
	<path d="M512 812.138a17.652 17.652 0 0 1-17.656-17.656v-105.932a17.652 17.652 0 0 1 17.656-17.656 17.652 17.652 0 0 1 17.656 17.656v105.932a17.652 17.652 0 0 1-17.656 17.656z" fill="#FFCF65" p-id="7388">
	</path>
	<path d="M512 653.242m-17.656 0a17.656 17.656 0 1 0 35.312 0 17.656 17.656 0 1 0-35.312 0Z" fill="#FFB450" p-id="7389">
	</path>
</svg>
