<svg t="1641975994829" class="icon" viewBox="0 0 1024 1024" version="1.1" xmlns="http://www.w3.org/2000/svg" p-id="6142" width="200" height="200">
	<path d="M211.184 199.91a30.648 30.648 0 0 1-3.458-14.167c0-16.966 13.753-30.72 30.72-30.72h112.64c16.966 0 30.72 13.754 30.72 30.72 0 5.31-1.36 10.357-3.783 14.775 59.298 13.02 103.257 65.896 103.257 128.585v194.56c0 72.713-58.944 131.658-131.657 131.658H239.909c-72.713 0-131.658-58.945-131.658-131.658v-194.56c0-62.061 43.084-114.508 101.482-128.185l1.774-0.403-0.323-0.605z m139.902-27.332h-112.64a13.166 13.166 0 0 0-4.253 25.629l41.338 14.073-43.564 2.993c-59.596 4.093-106.161 53.768-106.161 113.83v194.56c0 63.017 51.086 114.103 114.103 114.103h109.714c63.017 0 114.103-51.086 114.103-114.103v-194.56c0-60.062-46.567-109.737-106.16-113.827l-43.537-2.99 41.308-14.075a13.174 13.174 0 0 0 8.914-12.468 13.166 13.166 0 0 0-13.165-13.165z m-32.768 598.297c9.691 80.742 52.028 144.698 127.268 192.146l3.508 2.213-2.01 3.628c-27.25 49.158-54.744 61.275-120.29 46.277l-3.467-0.807-0.948-1.176c-27.872-34.626-44.383-115.639-50.097-243.648a19.032 19.032 0 0 1-11.893-17.639c0-10.503 8.513-19.017 19.017-19.017h1.463v-29.257H307.2v29.257h1.463c10.503 0 19.017 8.514 19.017 19.017a19.02 19.02 0 0 1-9.24 16.317l-0.406 0.235 0.284 2.454z m116.758 195.82c-75.751-49.73-117.898-116.9-126.178-201.23l4.206-0.424-1.167-3.464a10.246 10.246 0 0 0 6.966-9.708 10.24 10.24 0 0 0-10.24-10.24h-10.24v-29.257h-8.777v29.257h-10.24a10.24 10.24 0 0 0-10.24 10.24 10.247 10.247 0 0 0 8.224 10.044l3.378 0.673 0.146 3.442c5.442 126.45 21.416 206.801 47.376 240.45l2.259 0.512c31.75 7.068 53.296 6.957 69.421 0.073 14.158-6.046 24.92-17.364 36.86-37.911l0.551-0.956-2.305-1.5z" fill="#91000A" p-id="6143">
	</path>
	<path d="M285.257 707.983h17.554v29.258h-17.554z" fill="#D8000F" p-id="6144">
	</path>
	<path d="M285.257 707.983h5.852v29.258h-5.852z" fill="#C40714" p-id="6145">
	</path>
	<path d="M215.04 655.32h156.526v52.663H215.04z" fill="#FFE400" p-id="6146">
	</path>
	<path d="M244.297 655.32v52.663H215.04v-52.662h29.257z" fill="#FFA700" p-id="6147">
	</path>
	<path d="M276.48 765.035h36.786c8.353 85.09 51.68 152.323 129.98 201.699-24.208 43.67-47.448 60.078-117.449 43.67-27.384-34.02-43.823-115.81-49.317-245.37z" fill="#FFE400" p-id="6148">
	</path>
	<path d="M276.48 765.035h12.705c4.636 54.316 13.375 102.14 26.219 143.47 12.844 41.33 36.928 76.941 72.253 106.835-15.657 2.744-35.372 1.195-61.645-4.936-27.501-34.02-44.014-115.808-49.532-245.37z" fill="#FFA700" p-id="6149">
	</path>
	<path d="M279.406 737.24h29.257q14.628 0 14.628 14.63 0 14.628-14.628 14.628h-29.257q-14.629 0-14.629-14.629 0-14.628 14.629-14.628z" fill="#D8000F" p-id="6150">
	</path>
	<path d="M291.109 737.24c-8.08 0-14.629 6.55-14.629 14.63s6.55 14.628 14.629 14.628h-11.703c-8.08 0-14.629-6.55-14.629-14.629s6.55-14.628 14.629-14.628z" fill="#C40714" p-id="6151">
	</path>
	<path d="M375.954 712.372H210.651v-61.44h165.303v61.44zM219.43 659.709v43.886h147.748v-43.886H219.43z" fill="#91000A" p-id="6152">
	</path>
	<path d="M215.04 655.32h156.526v52.663H215.04z" fill="#FFE400" p-id="6153">
	</path>
	<path d="M215.04 655.32h29.257v52.663H215.04z" fill="#FFA700" p-id="6154">
	</path>
	<path d="M295.497 70.178c14.542 0 26.332 11.789 26.332 26.331l-0.006 0.467c-0.215 7.914-5.69 30.372-16.811 69.819l-9.515 33.606-9.514-33.606c-11.346-40.252-16.817-62.815-16.817-70.286l0.004-0.483c0.258-14.321 11.946-25.848 26.327-25.848z m-1.354 59.9l1.354 5.118 1.612-6.102c4.597-17.576 7.018-28.56 7.16-32.263l0.005-0.322a8.777 8.777 0 0 0-17.554 0l0.007 0.338c0.15 3.789 2.66 15.105 7.416 33.23z" fill="#91000A" p-id="6155">
	</path>
	<path d="M238.446 163.8h112.64q21.943 0 21.943 21.943t-21.943 21.943h-112.64q-21.943 0-21.943-21.943 0-21.942 21.943-21.942z" fill="#FFE400" p-id="6156">
	</path>
	<path d="M264.777 163.8c-12.118 0-21.943 9.825-21.943 21.943 0 12.119 9.825 21.943 21.943 21.943h-26.331c-12.119 0-21.943-9.824-21.943-21.943 0-12.118 9.824-21.942 21.943-21.942z" fill="#FFA700" p-id="6157">
	</path>
	<path d="M239.909 206.223h109.714q122.88 0 122.88 122.88v194.56q0 122.88-122.88 122.88H239.909q-122.88 0-122.88-122.88v-194.56q0-122.88 122.88-122.88z" fill="#D8000F" p-id="6158">
	</path>
	<path d="M298.423 206.223c-67.865 0-122.88 55.015-122.88 122.88v194.56c0 67.865 55.015 122.88 122.88 122.88h-58.514c-67.865 0-122.88-55.015-122.88-122.88v-194.56c0-67.865 55.015-122.88 122.88-122.88z" fill="#C40714" p-id="6159">
	</path>
	<path d="M294.463 334.955l91.124 91.126-91.124 91.125-91.126-91.125 91.126-91.126z m33.839 91.15h-42.803v37.172h7.24V460.3h28.322v2.977h7.24v-37.172z m-56.32-37.814l-7.161 2.011c1.368 2.977 2.575 6.034 3.701 9.172h-10.62v7.322h17.7c-3.379 8.126-9.815 16.493-19.39 25.183l2.333 8.046a157.975 157.975 0 0 0 8.287-7.966v31.137h7.403v-32.344a71.191 71.191 0 0 1 6.275 6.598l4.103-6.276a72.667 72.667 0 0 0-10.298-8.126c4.103-5.632 7.08-11.344 9.011-17.137v-6.437h-7.643a95.15 95.15 0 0 0-3.701-11.183z m31.298 57.848v7.563h-10.54v-7.563h10.54z m17.78 0v7.563h-10.54v-7.563h10.54z m-17.78-13.677v7.321h-10.54v-7.321h10.54z m17.78 0v7.321h-10.54v-7.321h10.54z m3.621-29.77H289.28v18.747h35.401v-18.747z m-7.16 6.035v6.678h-21.08v-6.678h21.08z m11.666-17.057h-44.252v6.758h44.252v-6.758z" fill="#FFE400" p-id="6160">
	</path>
	<path d="M294.463 334.955l7.836 7.836-83.289 83.29 83.29 83.286-7.837 7.838-91.126-91.124 91.126-91.126z" fill="#FFA700" p-id="6161">
	</path>
	<path d="M413.835 166.124a30.669 30.669 0 0 1-5.36-10.834l-1.485-5.542c-4.391-16.388 5.334-33.233 21.724-37.624l128.564-34.45c16.387-4.39 33.232 5.336 37.625 21.724l1.483 5.54a30.64 30.64 0 0 1 0.666 12.802c64.81-8.958 127.662 31.545 145.035 96.378l65.252 243.527c18.82 70.234-22.861 142.426-93.096 161.246l-150.859 40.423c-70.234 18.82-142.426-22.861-161.246-93.096l-65.254-243.526c-17.197-64.186 16.13-130.004 75.605-155.231l1.81-0.752-0.464-0.585zM561.821 94.63l-128.565 34.45a13.166 13.166 0 0 0-9.31 16.124l1.485 5.541a13.172 13.172 0 0 0 11.018 9.655l43.886 5.734-45.81 12.266c-60.87 16.311-96.994 78.878-80.685 139.747l65.254 243.526c16.31 60.87 78.877 96.994 139.747 80.684l150.86-40.423c60.87-16.31 96.992-78.877 80.682-139.747L725.13 218.661c-16.311-60.87-78.878-96.992-139.746-80.683l-45.808 12.282 35.138-26.907a13.172 13.172 0 0 0 4.716-13.871l-1.484-5.542a13.166 13.166 0 0 0-16.125-9.31z m136.44 665.591c34.313 85.35 99.362 142.836 195.479 172.655l3.961 1.229-1.28 5.123-0.561 2.19c-7.64 29.279-17.062 47.123-33.11 59.717-18.067 14.178-44.608 21.091-85.667 22.387l-1.51 0.048-1.22-0.892c-40.424-29.551-82.11-113.064-125.754-250.98-8.18-0.282-15.5-5.86-17.705-14.091l-0.99-3.694c-2.719-10.145 3.301-20.572 13.446-23.291l4-1.071-8.563-31.955 27.651-7.41L675 722.143l4-1.07c10.145-2.72 20.572 3.301 23.29 13.446l0.99 3.694a19.029 19.029 0 0 1-5.696 19.108l-0.353 0.307 1.03 2.595z m188.895 179.782c-98.032-31.459-164.4-91.828-198.776-180.922l-0.659-1.726 4.073-1.558-1.99-3.666a10.246 10.246 0 0 0 4.998-11.648l-0.99-3.694a10.24 10.24 0 0 0-12.542-7.241l-12.477 3.344-8.562-31.955-10.693 2.866 8.562 31.953-12.478 3.344a10.24 10.24 0 0 0-7.241 12.541l0.99 3.694a10.247 10.247 0 0 0 11.631 7.446l3.783-0.655 2.443 7.745c42.544 134.244 83.137 215.996 121.106 244.827l2.437-0.093c37.077-1.547 60.796-8.005 76.56-20.375 13.729-10.774 22.209-26.273 29.242-52.054l0.583-2.173z" fill="#91000A" p-id="6162">
	</path>
	<path d="M644.138 700.511l19.173-5.137 8.562 31.954-19.172 5.138z" fill="#D8000F" p-id="6163">
	</path>
	<path d="M644.138 700.513l6.392-1.713 8.56 31.953-6.39 1.713z" fill="#C40714" p-id="6164">
	</path>
	<path d="M552.034 663.542l170.957-45.807 15.411 57.518-170.955 45.807z" fill="#FFE400" p-id="6165">
	</path>
	<path d="M583.99 654.98l15.411 57.52-31.954 8.56-15.412-57.517 31.955-8.562z" fill="#FFA700" p-id="6166">
	</path>
	<path d="M651.248 765.39l40.177-10.765c34.026 90.49 101.022 151.24 200.99 182.255-13.66 54.78-34.242 79.501-115.496 82.069-39.866-29.143-81.756-113.664-125.671-253.557z" fill="#FFE400" p-id="6167">
	</path>
	<path d="M651.248 765.39l13.875-3.717c20.958 57.967 44.5 107.642 70.624 149.023 26.124 41.381 62.85 73.228 110.18 95.54-16.3 7.578-38.52 11.72-69.008 12.711-39.994-29.106-81.886-113.626-125.671-253.557z" fill="#FFA700" p-id="6168">
	</path>
	<path d="M644.462 734.673l35.65-9.552q14.13-3.786 17.915 10.344l0.99 3.694q3.786 14.13-10.344 17.916l-35.649 9.552q-14.13 3.786-17.916-10.344l-0.99-3.694q-3.786-14.13 10.344-17.916z" fill="#D8000F" p-id="6169">
	</path>
	<path d="M657.243 731.249c-7.803 2.092-12.435 10.11-10.343 17.915l0.99 3.694c2.091 7.804 10.112 12.434 17.915 10.344l-12.781 3.426c-7.805 2.092-15.825-2.541-17.916-10.344l-0.99-3.695c-2.092-7.803 2.54-15.825 10.342-17.916z" fill="#C40714" p-id="6170">
	</path>
	<path d="M743.778 678.356l-179.434 48.08-17.683-65.997 179.434-48.078 17.683 65.995z m-186.368-11.71l13.14 49.04 162.477-43.535-13.139-49.041-162.478 43.534z" fill="#91000A" p-id="6171">
	</path>
	<path d="M552.034 663.542l170.957-45.807 15.411 57.518-170.955 45.807z" fill="#FFE400" p-id="6172">
	</path>
	<path d="M552.035 663.543l31.954-8.562 15.412 57.52-31.954 8.56z" fill="#FFA700" p-id="6173">
	</path>
	<path d="M465.932 2.417c15.27-4.092 30.967 4.97 35.059 20.243l0.125 0.497c2.023 8.469 2.623 34.153 2.056 79.44l-0.518 36.873-18.099-30.351c-23.622-39.717-36.194-62.669-38.72-71.127l-0.146-0.515c-4.092-15.272 4.97-30.969 20.243-35.06z m16.63 68.556l3.247 5.628-0.006-7.39c-0.073-23.106-0.665-37.286-1.69-41.689l-0.078-0.32a11.072 11.072 0 0 0-21.389 5.731c1.086 4.052 7.853 17.024 19.917 38.04z" fill="#91000A" p-id="6174">
	</path>
	<path d="M430.985 120.602L559.55 86.155q21.195-5.68 26.874 15.516l1.485 5.542q5.68 21.195-15.516 26.874l-128.566 34.449q-21.195 5.68-26.874-15.516l-1.485-5.542q-5.68-21.195 15.516-26.874z" fill="#FFE400" p-id="6175">
	</path>
	<path d="M459.742 112.896c-11.705 3.136-18.651 15.17-15.515 26.874l1.485 5.541c3.136 11.706 15.168 18.653 26.873 15.517l-28.757 7.706c-11.706 3.137-23.74-3.81-26.876-15.516l-1.484-5.542c-3.137-11.705 3.81-23.737 15.516-26.874z" fill="#FFA700" p-id="6176">
	</path>
	<path d="M432.252 169.922L583.111 129.5q118.693-31.804 150.497 86.889l65.252 243.527q31.804 118.693-86.889 150.497l-150.859 40.422q-118.693 31.804-150.496-86.89L345.363 320.42q-31.804-118.693 86.89-150.497z" fill="#D8000F" p-id="6177">
	</path>
	<path d="M496.16 152.798c-65.55 17.565-104.454 84.946-86.89 150.498l65.255 243.526c17.564 65.552 84.943 104.454 150.497 86.89l-63.91 17.123C495.56 668.4 428.18 629.498 410.616 563.946L345.363 320.42c-17.565-65.552 21.337-132.933 86.89-150.497z" fill="#C40714" p-id="6178">
	</path>
	<path d="M545.024 290.4l126.195 72.858-72.86 126.194-126.193-72.858 72.858-126.195z m63.634 89.65l-46.748 12.527 10.878 40.597 7.908-2.118-0.87-3.252 30.93-8.289 0.872 3.252 7.908-2.12-10.878-40.597z m-72.578-24.819l-7.232 4.292c2.365 2.853 4.578 5.837 6.726 8.936l-11.6 3.107 2.143 7.997 19.333-5.18c-1.312 9.864-5.896 20.887-13.81 33.178l4.905 8.105a178.627 178.627 0 0 0 6.72-11.125l9.113 34.009 8.084-2.167-9.465-35.326a80.497 80.497 0 0 1 8.784 5.369l2.645-8.055a82.166 82.166 0 0 0-13.626-5.86c2.833-7.352 4.413-14.463 4.827-21.355l-1.884-7.03-8.349 2.238a107.587 107.587 0 0 0-7.314-11.133z m51.112 54.024l2.214 8.26-11.513 3.083-2.212-8.26 11.511-3.085z m19.421-5.205l2.214 8.26-11.513 3.084-2.213-8.259 11.512-3.085z m-23.423-9.735l2.142 7.997-11.512 3.084-2.143-7.996 11.513-3.085z m19.42-5.204l2.142 7.998-11.512 3.083-2.142-7.996 11.513-3.085z m-4.758-33.572l-38.665 10.36 5.486 20.474 38.665-10.36-5.486-20.474z m-6.056 8.686l1.956 7.292-23.024 6.17-1.955-7.293 23.024-6.169z m7.752-22.045l-48.332 12.95 1.978 7.382 48.331-12.95-1.977-7.38z" fill="#FFE400" p-id="6179">
	</path>
	<path d="M545.024 290.4l10.853 6.265-66.592 115.341L604.627 478.6l-6.267 10.852-126.194-72.858 72.858-126.195z" fill="#FFA700" p-id="6180">
	</path>
</svg>
